<?xml version="1.0" standalone="no"?>
<!DOCTYPE svg PUBLIC "-//W3C//DTD SVG 1.1//EN" "http://www.w3.org/Graphics/SVG/1.1/DTD/svg11.dtd" >
<svg xmlns="http://www.w3.org/2000/svg">
<metadata></metadata>
<defs>
<font id="scrawlregular" horiz-adv-x="819" >
<font-face units-per-em="2048" ascent="1638" descent="-410" />
<missing-glyph horiz-adv-x="497" />
<glyph horiz-adv-x="2048" />
<glyph horiz-adv-x="2048" />
<glyph unicode="&#xd;" horiz-adv-x="2048" />
<glyph unicode=" "  horiz-adv-x="497" />
<glyph unicode="&#x09;" horiz-adv-x="497" />
<glyph unicode="&#xa0;" horiz-adv-x="497" />
<glyph unicode="!" horiz-adv-x="462" d="M115 1192q-4 29 6 39t39 14q4 2 12 2q23 0 47.5 -10t30.5 -27q4 -6 6 -13t2 -17q6 -72 12 -145.5t13 -145.5l39 -637q2 -12 -2.5 -20.5t-8.5 -14.5q-12 -12 -37 -12q-16 0 -26 4q-33 6 -51.5 19.5t-20.5 43.5q-6 86 -11 189.5t-11.5 212t-13.5 215t-15 198.5 q-4 27 -5 52.5t-5 52.5zM180 35q-8 31 8 47q10 16 37 16h6q23 -2 43.5 -7t36.5 -11q31 -14 31 -53q-2 -16 -17.5 -34t-31.5 -22q-12 -4 -21 -4h-6h-2q-72 0 -84 68z" />
<glyph unicode="&#x22;" horiz-adv-x="612" d="M135 983v102q0 18 2 37t0 37q-2 20 19.5 41t50.5 25q12 4 26.5 -3.5t18.5 -17.5q4 -6 4 -18q0 -41 -2 -83t-2 -85q2 -25 4 -50.5t2 -52.5q0 -10 2 -21t2 -22q4 -31 -17.5 -48t-62.5 -21q-23 -2 -30 3t-9 19q-2 41 -4 79t-4 79zM356 1157q-6 63 80 68q20 2 27.5 -3 t9.5 -22q4 -37 5 -76t3 -80q2 -25 1 -50t1 -52q2 0 0 -2q0 -16 -2 -33.5t-2 -36.5q2 -23 -18.5 -43t-48.5 -24q-12 -4 -26.5 3t-20.5 17q-2 8 -3 19q0 41 1.5 84t1.5 86q0 47 -7 100q0 10 -1 22.5t-1 22.5z" />
<glyph unicode="#" d="M72 528q2 12 11 24.5t34 16.5q14 2 26.5 4t24.5 5h15t18 2h2q4 31 10 61.5t12 65.5l-21 -3.5t-20 -3.5h-18q-39 0 -60 25q-23 23 -18 74l2 12l10 4q20 4 39 6t37 4t35.5 4t34.5 7q14 59 24.5 119.5t20.5 121.5q6 35 11 70t13 70v8l7 2q16 10 34 10q14 0 33 -6 q51 -18 41 -72q-4 -16 -6 -35.5t-6 -36.5q-4 -16 -6 -33.5t-6 -35.5q-6 -35 -12.5 -72t-12.5 -74l-2 -24h156q16 59 25 119.5t20 124.5q4 29 9 59.5t11 60.5l2 13h14h17q4 0 9 1t9 1q6 0 12.5 -1t12.5 -1q55 -12 45 -72q-4 -39 -11.5 -78t-13.5 -78q-4 -10 -4 -19t-2 -20 q-4 -23 -7 -43t-7 -43q-6 -10 -6 -16h6q10 -4 19.5 -8t19.5 -8q23 -10 33 -26.5t4 -39.5q-10 -43 -62 -43h-2h-12q-6 0 -8 1t-6 1h-3q-4 0 -7 -1l-9 -3q-4 -10 -7 -30.5t-7 -41.5q-6 -23 -11 -51q0 -2 3 -2h6q20 -6 45 -16q51 -20 37 -68q-14 -41 -64 -41h-24h-19h-8l-6 -24 q-2 -16 -5 -32.5t-5 -33.5q-14 -86 -30 -185.5t-32 -215.5q-4 -23 -19.5 -36t-33.5 -13h-17q-68 18 -61 88q4 33 10 72.5t13 72.5l6 37q6 29 11 57.5t11 57.5q6 35 12.5 69.5t12.5 69.5v6h-21q-23 0 -46 -2t-50 -6l-31 -6q-4 -12 -6 -21q-10 -37 -16 -72q-10 -41 -20.5 -87 t-18.5 -93q-4 -29 -7 -54.5t-7 -51.5q-4 -29 -7 -49v-9q-2 -4 -2 -9t-2 -9q-4 -23 -14 -38t-39 -15h-6q-29 0 -48.5 18.5t-21.5 46.5q0 16 2 25v6q16 106 33 194.5t35 168.5q4 10 6 21t2 22q0 2 2 2q-6 -2 -11 -3.5t-11 -1.5q-18 0 -32.5 9.5t-29.5 21.5q-27 16 -22 51z M334 590h4h23.5t21.5 -2q10 0 20.5 -1t20.5 -1q34 0 57 8q6 33 12.5 65.5t10.5 65.5q-20 4 -35 4q-23 0 -47.5 -3t-48.5 -7q-10 0 -17 -2q-2 -14 -5 -26.5t-5 -24.5q-4 -18 -8 -38t-4 -38z" />
<glyph unicode="$" d="M166 248q6 39 43 39h6q16 -4 36.5 -9.5t37.5 -33.5q2 -2 2 -3t2 -3q4 72 5 144.5t3 143.5q4 55 5 111.5t3 112.5l-18 12q-12 10 -25.5 20.5t-25.5 20.5q-53 43 -68.5 97t4.5 126q10 33 29.5 56.5t44.5 45.5q12 12 25.5 22.5t29.5 18.5q8 4 10 8.5t2 18.5q4 25 6.5 50.5 t6.5 51.5q2 18 11 29.5t32 11.5h8h4q8 0 14 -2q4 0 5.5 -1t5.5 -1q14 -6 23 -10t13 -14q10 -16 3 -51q-2 -14 -2.5 -27.5t-2.5 -30.5q0 -4 -1 -8t-1 -8h4q8 -2 23 -2q78 -4 117 -78q6 -10 11 -19.5t9 -19.5q4 -12 6 -16q14 -31 -12 -47q-10 -10 -35 -11q-27 0 -41 11 q-16 10 -26 32q-16 49 -52 49q0 -6 -1 -12t-1 -12q-2 -35 -2 -70v-69q0 -25 -1 -53.5t-1 -55.5q0 -18 15 -31q33 -25 59 -63q4 -4 6 -8q18 -29 35.5 -57.5t30.5 -61.5q18 -51 33.5 -104.5t15.5 -112.5v-19v-41q10 -115 -57 -184q-63 -68 -156 -68q0 -4 -1 -9t-1 -9 q-2 -10 -2 -17.5t-2 -15.5q-2 -18 -3 -35.5t-5 -33.5q-4 -29 -19.5 -37t-32.5 -8q-12 0 -29.5 2t-29.5 14q-10 10 -12 24.5t-2 32.5q4 14 4 29.5t2 30.5q2 10 2 22.5v22.5q2 20 -15 30q-23 16 -46 35t-44 37q-31 25 -20 70zM293 918q2 -10 6 -18.5t16 -18.5v139 q-16 -23 -19 -49.5t-3 -52.5zM424 259q0 -62 2 -91q14 6 24.5 13t20.5 18q31 31 33 65q10 55 6 121q-4 53 -18.5 103.5t-34.5 97.5q-4 10 -9.5 21t-13.5 22q-2 -35 -3 -94.5t-3 -131.5q-4 -82 -4 -144z" />
<glyph unicode="%" horiz-adv-x="804" d="M80.5 920.5q9.5 35.5 48.5 62.5t57 27t47 -35q6 -16 15.5 -40t13.5 -52q2 -8 -5 -19.5t-15 -17.5q-14 -14 -34 -20.5t-41.5 -4.5t-41 10.5t-31.5 24.5q-23 29 -13.5 64.5zM170 27.5q-6 9.5 2 38.5l49 153q23 74 42.5 147.5t41.5 145.5q16 55 34.5 109.5t37.5 107.5 q25 74 49.5 146.5t48.5 146.5q16 47 32.5 91t33.5 91q8 25 37 25q33 -4 51 -24.5t10 -51.5q-6 -29 -16.5 -54.5t-20.5 -54.5q-12 -31 -24.5 -62.5t-22.5 -63.5q-29 -84 -56.5 -165t-54.5 -165t-50 -167t-48 -167l-49 -154q-8 -27 -15.5 -52t-15.5 -54q-20 2 -35.5 0t-31.5 8 q-23 16 -29 25.5zM537 311q10 59 50 86t75 4q16 -10 26 -23t4 -36q-4 -20 -7 -40.5t-13 -39.5q-18 -41 -48 -46t-59 28q-14 16 -19 36.5t-9 30.5z" />
<glyph unicode="&#x26;" horiz-adv-x="749" d="M86 176q-4 53 0 115.5t15.5 126t26.5 125t34 110.5l-6 13q-4 6 -8.5 14t-8.5 22q-16 41 -22 76t-15 78q-6 31 -5 63.5t-1 65.5q-2 53 9.5 90t24.5 60.5t23.5 33t6.5 5.5l8 4q23 29 69 47t89 14q82 -10 122.5 -51t47.5 -103q4 -45 3 -89t-20 -87q-18 -47 -43 -92 q-29 -47 -54 -95t-54 -95q31 -53 61.5 -107.5t56.5 -103.5q8 29 18.5 61.5t16.5 61.5q14 51 62 63q33 6 64.5 2t60.5 -26q18 -18 0 -39q-23 -23 -29 -51.5t-14 -57.5q-10 -43 -19.5 -85t-23.5 -83t16 -78q27 -33 50.5 -64.5t45.5 -66.5q29 -41 17.5 -61.5t-60.5 -26.5 q-63 -10 -92 41q-16 25 -34.5 48.5t-39.5 49.5q-16 -16 -31.5 -28.5t-29.5 -24.5q-47 -45 -111.5 -53t-122.5 20q-51 25 -75.5 65t-28.5 93zM222 231.5q5 -38.5 20.5 -68t33.5 -52.5q35 31 65 62.5t48 70.5q-14 25 -28.5 45t-28.5 43q-12 23 -34 52.5t-40 53.5 q-27 -68 -34 -118t-2 -88.5zM244 941q2 -30 8 -55.5t16 -41.5q57 59 66.5 128.5t-2.5 147.5q-31 -4 -45.5 -22.5t-24.5 -38.5q-12 -27 -16 -57.5t-2 -60.5z" />
<glyph unicode="'" horiz-adv-x="397" d="M135 983v102q0 18 2 37t0 37q-2 20 19.5 41t50.5 25q12 4 26.5 -3.5t18.5 -17.5q4 -6 4 -18q0 -41 -2 -83t-2 -85q2 -25 4 -50.5t2 -52.5q0 -10 2 -21t2 -22q4 -31 -17.5 -48t-62.5 -21q-23 -2 -30 3t-9 19q-2 41 -4 79t-4 79z" />
<glyph unicode="(" horiz-adv-x="706" d="M209 637v2q6 84 19.5 161t35.5 154q10 37 21.5 74t23.5 74q6 18 12.5 38.5t12.5 43.5q8 29 20.5 39t42.5 10h6h27q12 -2 27.5 -6t21.5 -19q10 -14 2 -51q-4 -16 -9 -31.5t-11 -31.5q-4 -12 -10.5 -25.5t-10.5 -30.5q-8 -29 -16 -59.5t-16 -60.5q-4 -23 -10.5 -45.5 t-14.5 -45.5q-33 -117 -23.5 -234.5t25.5 -230.5q0 -12 4 -32q10 -72 32.5 -142.5t57.5 -136.5l5 -10t8 -10q4 -11 16 -27q6 -14 11 -30.5t7 -32.5q4 -35 -14 -54q-12 -14 -35 -14q-18 0 -39 10q-39 18 -65 58q-68 106 -111 270q-16 78 -24.5 152.5t-16.5 150.5 q-4 29 -6 60.5t-6 62.5z" />
<glyph unicode=")" horiz-adv-x="700" d="M231 1212q12 18 43 19h9q51 -4 72.5 -18.5t41.5 -57.5q82 -182 115 -367q12 -76 15 -137t-1 -121l-2 -18q-8 -72 -15 -146.5t-13 -146.5q-4 -27 -10.5 -56.5t-12.5 -58.5l-6 -24q-8 -35 -17.5 -72t-19.5 -76q-4 -12 -8 -22t-10 -21q-8 -12 -13 -20l-2 -10l-10 4l-14 7 t-15 5q-33 10 -53 23q-37 14 -26 57q8 49 24 100q23 94 42.5 188.5t19.5 192.5q0 16 2 33.5t4 36.5q2 12 2 25.5t2 27.5q8 127 -14.5 254t-79.5 252q-4 12 -10.5 23.5t-12.5 23.5q-6 10 -12 22.5t-13 24.5q-12 31 -2 53z" />
<glyph unicode="*" />
<glyph unicode="+" d="M135 590q-4 14 4 28.5t25 20.5q12 4 22 4q43 0 87 1t87 3q-2 16 -3 31.5t-1 32.5q-2 16 -3 30.5t-5 30.5q-6 90 82 100q23 4 30 -3t11 -29q4 -47 6 -93.5t6 -95.5q23 4 42.5 4t41.5 2q14 2 29.5 3.5t30.5 3.5q43 6 69.5 -15.5t30.5 -62.5q4 -25 -2 -33t-29 -8 q-53 -6 -103 -9.5t-104 -5.5q0 -14 1.5 -26t1.5 -29h-5q2 -25 2 -49.5t5 -48.5q2 -29 -19.5 -58.5t-50.5 -39.5q-14 -4 -27.5 4t-19.5 24q-6 12 -6 25q-2 47 -2 96t-4 96q-8 0 -16.5 -1t-18.5 -1v6q-23 -2 -48.5 -3t-50.5 -5q-29 -2 -59.5 19.5t-36.5 50.5z" />
<glyph unicode="," horiz-adv-x="501" d="M70 -195.5q8 13.5 16 21.5q6 6 8 6q0 2 6 8q10 12 21.5 25.5t21.5 30.5q29 45 33 95t0 97q-2 10 -3 22.5t-3 24.5l-2 33l8 4q33 14 55 14q20 0 37 -10q47 -25 47 -70q0 -6 1 -13t1 -13q4 -51 3 -100.5t-17 -100.5q-16 -47 -46 -78.5t-64 -58.5q-14 -14 -37 -14t-45.5 12 t-36.5 33q-12 18 -4 31.5z" />
<glyph unicode="-" d="M133 537q-4 23 2 29.5t27 8.5q53 4 105 8.5t106 8.5q35 2 69.5 3t69.5 3v-4q47 0 96 6q29 2 56.5 -17.5t35.5 -47.5q4 -12 -4 -26.5t-24 -21.5q-12 -4 -21 -4q-57 -4 -114.5 -4t-114.5 -2q-33 -2 -66.5 -4t-68.5 -6q-16 -2 -29.5 -3t-30.5 -3q-41 -4 -65.5 15.5 t-28.5 60.5z" />
<glyph unicode="." horiz-adv-x="446" d="M147 68q-6 27 11 47q10 16 35 16h8q23 -2 42.5 -8t35.5 -12q35 -10 30 -52q0 -16 -15 -33.5t-32 -21.5q-12 -4 -20 -4h-6h-3q-70 0 -86 68z" />
<glyph unicode="/" horiz-adv-x="677" d="M135 20q-6 14 0 31q18 68 36.5 136.5t37.5 136.5q31 111 63.5 220t61.5 220q16 53 27.5 106.5t25.5 106.5q16 59 32.5 117.5t35.5 115.5q6 23 16 29t35 0q49 -12 41 -51q-4 -23 -9.5 -41.5t-9.5 -38.5q-23 -86 -45 -169t-45 -169q-16 -66 -33.5 -129t-35.5 -129 q-16 -59 -34 -116.5t-34 -116.5t-31.5 -119t-31.5 -119q-4 -10 -6.5 -18.5t-6.5 -14.5q-4 -8 -11 -12t-11 -8q-25 0 -40.5 9t-27.5 23z" />
<glyph unicode="0" horiz-adv-x="768" d="M125 728q10 134 43 267q10 37 39 97.5t63 107.5q29 35 75 38t92 -16.5t83 -57.5t47 -83q33 -125 57.5 -249.5t32 -247.5t-8 -241t-60.5 -224q-10 -23 -22.5 -45.5t-26.5 -44.5q-49 -74 -140 -54q-86 18 -140 71.5t-77 131.5q-20 70 -31.5 139.5t-19.5 141.5 q-16 135 -6 269zM279 614.5q0 -106.5 13 -204t37.5 -174t61.5 -115.5q10 -4 17.5 3t12.5 20.5t11 31t12 33.5q25 66 35 131.5t10 132t-5 133t-9 131.5q-6 68 -11 134.5t-22 132.5q-4 12 -8 30.5t-11 35.5t-15.5 29.5t-20.5 10.5q-37 -39 -61.5 -117t-35.5 -175t-11 -203.5z " />
<glyph unicode="1" horiz-adv-x="520" d="M109 1085.5q-5 22.5 16 53.5q12 16 23.5 33.5t21.5 37.5q18 33 66 29q76 -6 96 -82q18 -80 19 -162t3 -159q4 -68 4 -145t2 -148q4 -59 0 -118.5t-4 -119.5q0 -53 -2 -104.5t-2 -104.5q-2 -18 1 -37.5t1 -48.5q0 -12 -27.5 -27.5t-47.5 -15.5q-37 4 -63 36t-23 73v63 q4 63 5 128t3 130v101.5t-2 101.5q-4 92 -6.5 191.5t2.5 197.5q0 16 -4.5 20.5t-14.5 8.5q-8 4 -17 8t-14 10q-31 27 -36 49.5z" />
<glyph unicode="2" d="M150.5 1000.5q-5.5 19.5 1.5 39.5q4 12 7 25.5t7 26.5q2 4 2 10q43 133 186 137h19q72 0 121 -14q59 -12 90 -56q31 -41 32 -104q2 -72 -11 -139.5t-30 -126.5q-23 -80 -40 -162t-33 -162q-18 -88 -41 -180t-41 -172q2 -2 8 -2q6 -2 25 -2q23 0 49 5t51 1 q14 -4 30.5 -8.5t32.5 -12.5q57 -27 39 -84q-4 -20 -24.5 -34.5t-44.5 -14.5h-203q-25 4 -47.5 7.5t-44.5 11.5q-23 8 -40.5 28.5t-6.5 61.5q41 193 85 381t79 346q2 14 7 43t11 59.5t10 58t8 44.5q4 25 10.5 47t-8.5 31q-49 12 -65 12q-35 0 -57 -60q-6 -12 -11.5 -28.5 t-11.5 -36.5q-8 -23 -19.5 -36t-39.5 -13h-9q-23 0 -39 10t-28 27q-10 16 -15.5 35.5z" />
<glyph unicode="3" horiz-adv-x="733" d="M92 1059q29 80 76 133q35 39 96 45q10 2 20.5 3t18.5 1q88 0 137 -53q51 -47 58 -135q10 -164 -68 -287l-8 -12t-2 -11q0 -2 5 -7t9 -11q86 -98 111 -246q8 -49 13 -87t5 -73.5t-4 -74.5t-12 -90q-4 -63 -68 -119q-59 -59 -129 -66q-4 0 -7 -1t-7 -1q-39 0 -65.5 16.5 t-43.5 32.5q-16 16 -32.5 40t-18.5 59q-2 10 -1 23.5t11 23.5t21.5 12t21.5 2h2q18 0 40 -5t38 -28q4 -6 10.5 -12t10.5 -14q2 -2 2 -3t2 -3q25 12 39 31.5t22 54.5q4 25 7.5 42t5.5 33.5t1 37t-3 50.5q-4 29 -8.5 60t-10.5 72q-18 113 -104 192q-16 16 -29 41q-18 37 6 74 q90 127 84 260q-2 10 -2 19t-4 20q0 2 -1 3t-1 3q-29 -2 -45.5 -17.5t-30.5 -44.5q-4 -10 -7 -19t-7 -19q-4 -16 -6 -23q-8 -20 -19 -35q-8 -6 -15 -9t-20 -3q-10 0 -30 6q-45 12 -62 47q-16 33 -2 72z" />
<glyph unicode="4" horiz-adv-x="745" d="M118 447.5q-3 17.5 1 35.5q4 12 4 17q6 25 13 51.5t18 50.5q33 82 58.5 165t43.5 161q4 16 9 27.5t9.5 20.5t9.5 20.5t9 27.5t8 32.5t8 33.5q8 16 8 28q6 16 11.5 36t9.5 38q4 23 13 31t22 12q12 6 26 6q33 0 59.5 -21.5t30.5 -50.5q6 -35 8.5 -68.5t6.5 -64.5 q4 -53 8 -95t7 -80t6 -73.5t5 -74.5q2 -23 2 -45.5v-44.5v-26.5t3 -29.5q0 -10 4 -30q4 0 9 -1t9 -1q18 -2 31.5 -5.5t29.5 -7.5q47 -18 41 -69q-2 -16 -12 -31.5t-39 -26.5q-10 -2 -19 -3t-18 -3h-14h-12q-4 -8 -4 -10q2 -41 2 -89t4 -97q0 -23 1 -47.5t1 -49.5 q0 -12 1 -24.5t1 -24.5q4 -37 -11.5 -55.5t-50.5 -24.5q-6 -2 -14 -2q-25 0 -47 17.5t-33 42.5q-2 8 -3 14t-1 14q-2 53 -3 107.5t-3 107.5v80v18.5t-2 18.5h-12q-29 0 -54 -8q-8 0 -14 -1t-14 -3q-8 -4 -15 -4q-10 -2 -21 -4.5t-24 -2.5q-16 0 -30 7q-41 12 -68 45 q-10 16 -13 33.5zM299 522q4 0 17.5 2t27.5 4q17 2 35 4q0 55 -2 106.5t-8 104.5q-6 -16 -17.5 -53t-23.5 -74q-14 -43 -29 -94z" />
<glyph unicode="5" horiz-adv-x="724" d="M154 817q16 88 31.5 172t29.5 158q4 23 10 40t19 27q12 10 29.5 14.5t41.5 8.5q35 4 75 7t81 3h2q16 0 29.5 -6t27.5 -12h2q43 -27 31 -66q-10 -33 -28.5 -44t-34.5 -13h-39h-24.5t-24.5 -2q-20 -4 -31.5 -6t-18.5 -8q-6 -6 -14 -48q-10 -68 -18 -141q-2 -12 -4 -24.5 t-4 -26.5q80 -25 143 -90q23 -23 33 -47.5t20 -48.5q4 -10 7 -18.5t7 -16.5q25 -57 32 -116.5t11 -119.5v-31q12 -156 -36 -280q-20 -53 -58.5 -84t-85.5 -31q-8 0 -14 2q-45 2 -76 19q-39 23 -57 61q-12 29 -22.5 60.5t-20.5 62.5q-4 12 -5 28.5t9 28.5t25.5 15.5t27.5 3.5 h2q68 0 90 -70q10 -39 25 -69v-3q4 4 6 9q35 68 37 161q4 80 -2 170.5t-43 178.5q-8 16 -17.5 33.5t-21.5 29.5q-14 23 -41 23q-10 0 -16 -2q-16 -4 -27 -4q-41 0 -72 30q-39 33 -28 82z" />
<glyph unicode="6" d="M205 338q0 33 4 68.5t10 82.5q4 29 8 56.5t9 56.5q16 102 32.5 197.5t28.5 199.5q4 35 4 72t-2 76v76v16h14q18 0 27 2q8 0 15 1t16 1q18 0 24 -2q20 -4 34.5 -10t25.5 -19q10 -12 13 -27.5t5 -37.5q6 -82 -3 -162t-21 -158q-10 -61 -18.5 -122.5t-22.5 -122.5q2 -2 4 -2 q69 -7 120 -54q18 -20 35 -46.5t29 -65.5q23 -66 28 -115t-12 -119q-25 -100 -127 -180q-23 -16 -55 -16q-20 0 -43 8q-78 25 -121 80q-37 53 -49 133q-6 37 -9 68.5t-3 64.5zM380 289q1 -33 6 -64.5t13 -68.5q50 51 52 155q4 49 -8.5 73t-28.5 52q-4 8 -21 13 q-8 -51 -11 -89t-2 -71z" />
<glyph unicode="7" horiz-adv-x="749" d="M150 1182q-10 27 2 43q8 18 38 22q10 2 27 2h29h94h98h2q2 0 4 2h9h2q57 -2 84 -28q23 -31 14 -84q-4 -41 -9 -81t-12 -81q-4 -27 -7 -46.5l-6 -39t-6 -40t-5 -46.5q-4 -23 -5 -50.5t-3 -52.5v-28q4 0 7 -1t7 -1q16 -4 29.5 -7.5t29.5 -7.5q10 -4 20.5 -13t18.5 -19 q10 -16 10.5 -26.5t-4.5 -16.5q-4 -18 -32 -27q-18 -6 -38 -11t-40 -9t-29 -5q0 -16 -1 -28.5t-3 -26.5q-4 -39 -7 -71.5t-7 -73.5q-4 -57 -6 -114.5t-6 -119.5q-2 -8 -1 -16t1 -14t1 -12.5t1 -12.5q0 -35 -21 -53q-18 -20 -47 -21h-10q-43 6 -64.5 23.5t-19.5 66.5v19v33 q2 10 2 21v22q2 47 4 95t6 97q4 39 5 72t5 73q2 12 3 26.5t1 29.5h-6q-10 4 -20 6t-23 2q-25 2 -40 16.5t-25 30.5t-11.5 26.5t3.5 16.5q4 8 10 15.5t22 11.5q16 6 33.5 7t32.5 1h4h33q4 0 6 -2q4 20 5 46t5 46q4 39 10 62.5t11 60.5q4 49 10 101t10 124h-37h-49h-66 q-61 0 -83 66z" />
<glyph unicode="8" horiz-adv-x="768" d="M147 999q2 117 115 195q16 8 17 8q6 6 6 4q29 12 46 16.5t29 8.5q6 0 12.5 2t14.5 6q31 6 55 4q51 -2 88 -43q68 -82 76 -170q10 -80 -9 -145.5t-46 -118.5q-14 -29 -26.5 -60.5t-22.5 -64.5q-2 -4 0 -13.5t4 -15.5q39 -53 64.5 -116.5t43.5 -137.5q10 -43 8.5 -85 t-8.5 -83q-12 -76 -55 -143h-2l-8 -12t-10 -12q-29 -27 -67 -41.5t-79 -10.5q-47 2 -85 24.5t-62 59.5q-20 31 -31.5 67t-17.5 81q-6 74 0 139.5t22 124.5q8 27 19.5 50.5t21.5 45.5q4 10 9 17.5t10 17.5q10 18 20 33q2 4 3 4t1 4q-4 4 -7 10t-7 10q-27 31 -51 70 q-98 137 -91 270zM319 981q-10 -55 9.5 -106.5t48.5 -96.5q20 31 34.5 62.5t30.5 62.5v8q8 18 10.5 42t0.5 47.5t-5.5 42t-5.5 26.5q-4 10 -10 18.5t-16 8.5q-12 0 -29 -9q-29 -20 -43 -42.5t-25 -63.5zM355.5 221q3.5 -39 11.5 -86q6 -27 26 -33h2q10 -2 22.5 6.5 t26.5 38.5q12 29 16.5 45.5t8.5 40.5v7q6 80 -7 128t-42 99q-2 4 -4 9t-4 9q-27 -37 -38.5 -80t-17.5 -96q-4 -49 -0.5 -88z" />
<glyph unicode="9" horiz-adv-x="798" d="M154 1053q6 68 55 121q45 49 117 61q33 8 71 8q23 0 43.5 -4t38.5 -10q45 -14 63.5 -40t22.5 -71q4 -84 8.5 -168t8.5 -168q2 -66 5 -135t7 -137q0 -18 1 -34.5t1 -33.5q0 -20 1 -39.5t3 -40.5q0 -47 6 -96q2 -27 4 -54.5t4 -55.5q2 -25 1 -49.5t-1 -47.5v-41v-8l-6 -4 q-45 -33 -67 -33q-23 0 -54 21q-25 16 -29.5 40.5t-4.5 39.5q-4 41 -4 82t-3 80q0 129 -6 256q-4 63 -8 124.5t-10 126.5q-4 20 -5 44t-3 47q-6 -4 -12.5 -7.5t-10.5 -7.5h-2q-29 -16 -57 -16q-27 0 -53 16q-29 12 -52.5 39t-40.5 60q-39 76 -32 135zM307.5 989 q-4.5 -24 11.5 -47q41 33 68 82q29 47 29 80q-65 -5 -90 -60q-14 -31 -18.5 -55z" />
<glyph unicode=":" horiz-adv-x="446" d="M139 401q4 27 23.5 42.5t48.5 15.5q10 0 16 -2q31 -2 47 -19q10 -10 11 -45v-2l-2 -2q0 -6 -4 -10q-4 -10 -10.5 -22.5t-16.5 -24.5q-4 -10 -16.5 -13.5t-18.5 -3.5q-33 0 -55 29q-27 29 -23 57zM162 86q4 6 13 20.5t32 14.5h8h25.5t25.5 -4q33 -10 43 -31q8 -23 -12 -53 q-12 -16 -35 -27l-8 -4l-2 -2h-2h-2q-25 0 -46.5 9t-33.5 28q-14 29 -6 49z" />
<glyph unicode=";" horiz-adv-x="522" d="M90 -373l2 8q10 31 29.5 40.5t38.5 11.5q39 8 45 53l2 2q4 37 6 70.5t-4 68.5q-4 18 0 28.5t8 14.5q12 18 41 19h4q70 0 78 -72q12 -88 -4 -172q-6 -45 -51 -80q-41 -37 -92 -37q-35 0 -58 15q-8 4 -14 9t-12 9t-13 10zM177.5 68.5q-5.5 23.5 4.5 42.5q16 33 51 32 q10 0 17 -2q14 -4 29.5 -9t27.5 -13q8 -6 12.5 -16.5t6.5 -16.5q0 -2 1 -3t1 -3l2 -2v-2q-2 -31 -20.5 -51.5t-45.5 -20.5q-14 0 -20 2q-10 4 -21.5 10.5t-21.5 14.5q-18 14 -23.5 37.5z" />
<glyph unicode="&#x3c;" horiz-adv-x="751" d="M68 553q-35 37 8 72q53 45 106.5 89t108.5 91q45 39 91 76t91 77q10 10 17.5 20.5t15.5 20.5q18 29 49 29t51 -27q23 -31 21 -46t-31 -44q-57 -59 -120.5 -113.5t-133.5 -103.5q-35 -27 -61.5 -57.5t-63.5 -65.5q20 -12 37.5 -22t34.5 -21q47 -37 95 -73.5t95 -75.5 q25 -20 41.5 -33.5t30.5 -26t30.5 -26.5t39.5 -37q29 -27 12 -70q-20 -45 -60 -28q-25 8 -45 26q-25 29 -44 47.5t-37.5 34t-39 31.5t-49.5 41q-47 41 -96 77t-106 64q-25 12 -46.5 32.5t-41.5 41.5z" />
<glyph unicode="=" horiz-adv-x="720" d="M72 643q-2 20 4 27.5t26 9.5q53 4 104.5 8t104.5 8q35 4 70 4t70 2v-4q25 2 48 2t48 5q29 2 56.5 -17.5t35.5 -48.5q4 -12 -4 -26.5t-25 -20.5q-12 -4 -20 -4q-57 -2 -113.5 -2t-114.5 -4q-35 -2 -68.5 -4.5t-68.5 -6.5q-14 -2 -28.5 -3t-28.5 -3q-86 -10 -96 78z M102 410q-4 12 4.5 26.5t22.5 20.5q8 6 23 6h113.5t113.5 4q72 4 135 12q29 0 59 6q41 4 67 -16t30 -61q4 -20 -2 -27.5t-29 -11.5q-53 -4 -104.5 -8.5t-104.5 -8.5q-35 -2 -69.5 -3t-69.5 -3v4q-25 -2 -48.5 -2t-47.5 -2q-29 -4 -56.5 15.5t-36.5 48.5z" />
<glyph unicode="&#x3e;" horiz-adv-x="755" d="M115 1004q-6 47 39 38q16 -4 29.5 -10t27.5 -12q37 -23 72.5 -44.5t74.5 -37.5q72 -31 137.5 -67.5t131.5 -79.5q6 -2 10 -5.5t8 -7.5q18 -16 22.5 -31.5t-12.5 -37.5q-4 -8 -20 -25q-57 -72 -115.5 -144.5t-116.5 -146.5q-47 -61 -82.5 -104t-80.5 -105 q-18 -27 -42 -27.5t-46 23.5q-39 43 -2 94q20 25 36.5 51.5t36.5 53.5q23 31 37 41t37 41q53 70 106.5 137t108.5 135q-59 47 -123.5 76t-128.5 61q-51 27 -98 60q-37 23 -47 74z" />
<glyph unicode="?" horiz-adv-x="784" d="M238 1026q2 10 3 19.5t1 19.5q4 29 8 54.5t16 51.5q18 37 53 58.5t78 21.5q8 0 17.5 -1t17.5 -1q102 -28 133 -116q16 -47 26.5 -92.5t10.5 -88.5q4 -72 -35 -149q-23 -47 -57.5 -68.5t-71.5 -38.5l-4 -2t-12 -2q-2 -2 -6 -2v-4v-10q4 -63 5 -126t3 -126q0 -20 1 -29.5 t1 -17.5q2 -10 2 -19.5t2 -31.5v-2q0 -16 -2 -25q-4 -18 -17.5 -30.5t-35.5 -12.5h-4q-39 4 -56 27q-20 18 -24 55v70v116q-2 12 -2 27.5v34.5q-2 23 -3 43t-3 39q0 12 -1 25.5t-3 25.5q0 10 1 20.5t5 18.5q6 10 14 14l20 10q8 2 15.5 5.5t13.5 5.5q16 4 29.5 10t25.5 12 q16 10 29 29q55 74 31 180q-4 23 -10.5 46.5t-14.5 47.5v2q-4 16 -6 19.5t-6 3.5h-4q-10 0 -16.5 -6.5t-8.5 -10.5q-6 -10 -11 -20t-7 -21q-4 -16 -6 -31.5t-4 -31.5v-2q-4 -16 -4 -27l-5 -16l-14 -6q-10 -2 -17 -4t-18 -2q-39 0 -61 28q-4 2 -10.5 11.5t-1.5 21.5zM295 66 q-6 33 8 47q10 16 37 16h8q20 -2 41 -7t37 -11q31 -12 31 -54q-2 -16 -16.5 -33.5t-32.5 -21.5q-12 -4 -19 -4h-8q-70 0 -86 68z" />
<glyph unicode="@" horiz-adv-x="931" d="M59.5 129q-8.5 104 8.5 197q10 53 24 104t33 100q25 78 80 129.5t124.5 78t146.5 26.5t147.5 -24.5t129 -74t89.5 -120.5q16 -35 24 -73t13 -75q10 -86 5 -166.5t-28 -162.5q-8 -29 -23.5 -55.5t-38 -45t-50 -24.5t-58.5 6q-37 14 -65.5 45t-51.5 65l-41 -41 q-27 -27 -56.5 -38t-58 -7t-53 21.5t-43.5 50.5q-14 27 -22 55.5t-16 57.5q-6 39 4 73.5t26 69.5q14 23 28.5 45.5t33.5 40.5q10 10 24.5 16.5t26.5 12.5q90 23 178 -10q29 -6 47.5 -30t20.5 -57q2 -37 2 -74.5v-74.5q0 -29 5 -54t34 -48q27 45 37 92t10 96t-7.5 99.5 t-13.5 97.5q-12 70 -73.5 114.5t-137 57t-148.5 -13t-106 -95.5q-29 -61 -47 -141t-22 -166t7 -172t42 -162t82 -134t127 -89q92 -37 148.5 -8.5t97.5 127.5q16 31 53 35t65 -31q8 -27 2 -51.5t-18 -47t-30.5 -43t-35.5 -39.5q-33 -35 -74.5 -56t-84.5 -34q-33 -10 -69 -3 t-71 18q-74 23 -131 71t-110 103q-51 53 -76 116.5t-41 133.5q-16 82 -24.5 186zM414.5 209.5q-9.5 -48.5 15.5 -103.5q18 14 36.5 41t31 58t18.5 61.5t2 50.5q-16 6 -32.5 3t-28.5 -17q-33 -45 -42.5 -93.5z" />
<glyph unicode="A" horiz-adv-x="856" d="M182 86q6 70 11.5 137.5t9.5 136.5q4 53 8 89t8 90q0 29 5 69.5t9 63.5q18 119 30.5 188.5t21 114.5t15.5 74.5t17 66.5q4 16 7.5 29.5t7.5 30.5q10 41 49 53q35 11 70 11q17 0 33 -3q50 -8 91 -47q20 -18 33 -57t19 -84t8 -88t6 -70q12 -193 22.5 -369t38.5 -360 q4 -20 15.5 -33.5t34.5 -19.5q51 -13 51 -59v-7q-2 -23 -19.5 -40t-42.5 -23q-32 -8 -57 -8q-28 0 -46 10q-36 18 -69 79q-16 31 -26.5 67t-16.5 73t-9 72.5t-5 68.5q0 12 -2 22.5t-4 22.5q-33 -2 -63.5 -3t-61.5 -5q-4 -12 -6 -24.5t-2 -22.5q-4 -72 -6 -141.5t-5 -141.5 q-4 -41 -19 -56.5t-54 -19.5q-11 -1 -21 -1q-56 0 -72 20q-16 17 -15 64q0 14 1 30zM390 612q-2 -32 -2 -57q0 -30 3 -51q11 0 23 -1h8q8 0 16 1q12 2 23.5 3t25.5 3q-6 55 -6 119.5t-1 131t-6 129t-19 114.5q-10 -27 -23.5 -94.5t-25 -146.5t-16.5 -151z" />
<glyph unicode="B" horiz-adv-x="702" d="M102 1148q2 30 9 30q63 20 127 36q57 15 115 16q7 0 14 -1q47 -2 88 -41q68 -68 80 -144q4 -24 3 -48q0 -55 -18 -115q-10 -41 -23.5 -81t-25.5 -83q125 -101 149 -231q10 -52 10 -106q0 -82 -22 -171q-18 -37 -39.5 -76t-50.5 -69.5t-66.5 -51t-86.5 -20.5q-20 0 -40 1 t-38 -13q-10 -6 -23.5 -6.5t-25.5 -0.5h-11q-27 -1 -37 7q-12 10 -16 45q-8 49 -13 97t-9 97q-6 84 -10.5 167t-8.5 167q0 90 -8 179t-10 179q-2 33 -5.5 78t-6.5 87q-2 28 -2 51q1 11 1 21zM269 964q3 -52 9.5 -112.5t18.5 -112.5q18 4 22.5 17.5t8.5 23.5q10 35 23.5 69 t17.5 69q1 19 1 38q0 60 -14 117q-8 35 -31 38q-4 1 -8 1l-38 -12q-5 -8 -9 -46q-2 -20 -2 -45q0 -21 1 -45zM290 586v-19q0 -31 2 -71q3 -54 8 -119.5t11 -124.5t12.5 -103.5t12.5 -56.5q41 29 71.5 59.5t45.5 77.5q14 58 14 113q0 25 -3 50q-9 79 -42 157q-12 27 -20.5 43 t-20.5 23.5t-31.5 7.5t-52.5 -2q-6 0 -7 -35z" />
<glyph unicode="C" horiz-adv-x="704" d="M152 494q0 104 15 206.5t38 206.5q8 37 10 73t10 75q18 78 75.5 130t137.5 60q7 1 14 1q24 0 46 -11q28 -14 55 -33q14 -14 12 -27.5t-14 -23.5t-30.5 -16.5t-33.5 -6.5q-35 0 -55 -14t-30.5 -35.5t-14.5 -46t-6 -45.5q-16 -109 -35.5 -214t-27.5 -211q-4 -50 -5 -99 q-1 -56 5 -112q10 -106 51 -212q6 -6 23.5 6.5t37 28.5t34.5 30.5t15 12.5q27 -10 47.5 -18.5t30.5 -20.5q11 -13 11 -32q0 -17 -13 -46q-29 -66 -80 -95.5t-121 -31.5h-7q-35 -1 -59 19q-26 22 -46 51q-37 49 -55.5 103.5t-25.5 112.5t-7 117.5t-2 117.5z" />
<glyph unicode="D" horiz-adv-x="800" d="M139 94.5q0 20.5 4 52.5q6 123 15.5 246t13.5 246q4 86 4 181v181q0 51 -2 100.5t-2 100.5q0 18 18 32q14 11 37 12q6 0 13 -1q41 -2 84 -8t77 -25q88 -47 148.5 -131t77.5 -182q31 -135 31 -268q0 -27 -2 -55q-8 -160 -66 -314q-18 -57 -54 -104t-81 -84 q-47 -39 -103 -73q-47 -29 -106 -29q-10 0 -21 1q-41 4 -51 15.5t-20 29.5q-4 8 -8.5 17.5t-5.5 24t-1 35zM317 176q8 -4 15 -6q53 61 79.5 136t49.5 153q14 75 18 159q1 22 1 45q0 61 -8 121q-11 82 -40 157t-78 134q-10 -223 -18.5 -451.5t-18.5 -447.5z" />
<glyph unicode="E" horiz-adv-x="643" d="M162 82q4 180 6 360.5t6 360.5q2 57 7 120.5t9 118.5q2 20 2.5 39t0.5 37q0 47 15 69.5t58 33.5q47 10 94.5 15t94.5 11q8 1 15 1q28 0 43 -20q19 -24 38 -46q5 -6 5 -13q0 -5 -4 -13q-9 -14 -20 -19q-35 -18 -78.5 -28t-82.5 -24q-5 -107 -19 -209q-7 -50 -7 -100 q0 -53 7 -106q14 0 27.5 -1t26.5 -1q33 0 51 -10t37 -27q25 -23 20.5 -44.5t-35.5 -33.5q-14 -6 -29.5 -7t-31.5 -3q-16 -4 -33.5 -7.5t-36.5 -7.5q-4 -104 -7 -213.5t-7 -216.5q31 -4 61.5 -3t58 -5t50 -24.5t35.5 -61.5v-7t-7.5 -6t-26 -5t-50.5 -4q-39 -4 -75 -10 q-21 -3 -42 -3q-15 0 -31 2q-31 4 -59.5 16.5t-54.5 28.5q-16 10 -23.5 26.5t-7.5 39.5z" />
<glyph unicode="F" horiz-adv-x="729" d="M174 1196q2 2 2 7t23 9q57 8 113.5 16.5t113.5 16.5q17 3 33 3q21 0 41 -5q35 -8 69 -18q16 -4 23.5 -14.5t7.5 -16.5q0 -4 -3 -13.5t-8 -19.5t-10.5 -18t-11.5 -10q-14 -4 -28.5 -3.5t-30.5 -1.5q-47 -4 -91 -10t-93 -12q6 -102 8 -185.5t6 -187.5q49 16 93 16 q1 -1 3 -1q45 0 82 -15q16 -6 26.5 -12t14.5 -23q2 -12 -11.5 -20t-25.5 -12q-41 -8 -81 -20.5t-83 -24.5v-568q0 -16 -1 -30.5t-11 -28.5q-10 -16 -36 -20q-7 -1 -15 -2q-20 0 -43 8q-33 12 -46.5 25t-10.5 36q2 29 7 57.5t5 57.5q1 26 1 53q0 40 -2 79.5t-2 79.5 q0 27 1 54q4 52 6 104q1 17 1 36q0 36 -3 75q-4 47 -7 92t-7 92q-4 36 -4 74q0 5 0.5 10t0.5 10q0 38 -4 74q-4 53 -6 101.5t-6 105.5z" />
<glyph unicode="G" horiz-adv-x="833" d="M174 596q0 109 10.5 215.5t46.5 210.5q20 57 44 95t65 87q35 45 94 47h5q55 0 93 -39q12 -14 18.5 -35.5t-28.5 -31.5q-51 -14 -73.5 -33.5t-38.5 -60.5q-59 -147 -75 -298q-8 -78 -8 -157q0 -75 7 -150q8 -80 9 -160.5t17 -162.5q31 4 43.5 41t16.5 65q10 66 20.5 121.5 t20.5 124.5q6 35 10 78t16 80q-10 0 -18 4t-15.5 8t-11.5 10q-23 35 -12.5 58.5t49.5 27.5q41 4 82 9q28 3 57 3l25 -1q35 -2 64.5 -14.5t40.5 -51.5q0 -25 -38 -43q-31 -15 -64 -15q-8 0 -15 1q-10 -59 -22.5 -123t-18.5 -127q-8 -53 -14.5 -105.5t-16.5 -105.5 q-8 -43 -30.5 -78t-49.5 -70q-25 -31 -59 -42q-23 -8 -46 -8q-11 0 -22 2q-35 5 -64.5 23.5t-45.5 49.5q-16 33 -28.5 67.5t-16.5 71.5q-10 104 -16.5 206t-6.5 206z" />
<glyph unicode="H" horiz-adv-x="796" d="M138 776q3 58 5 113q4 59 9.5 123.5t9.5 124.5q2 29 6 38t8 31q26 7 46 7q26 0 42 -12q27 -21 33 -46q7 -59 7 -119v-14q-1 -68 -5 -136q-4 -66 -7 -136q-1 -23 -1 -47q0 -46 4 -91q20 -1 39 -1q29 0 57 2q47 3 98 20v56.5t3 58.5q4 90 7 185t3 185q0 20 4 36.5t8 33.5 q6 20 14.5 32.5t30.5 18.5q4 1 9.5 1t11.5 -1q14 -2 27.5 -8t24.5 -15.5t13 -17.5q6 -20 10 -36.5t4 -39.5q0 -92 -4 -188q-3 -64 -3 -127q0 -31 1 -62q2 -67 2 -134q0 -51 -1 -101v-35q0 -100 14 -199q0 -8 7 -57t9 -105v-16q0 -45 -9 -83q-11 -44 -48 -44h-17.5t-21.5 2 q-49 10 -58 56q-6 51 -10 92t-8 94q-6 66 -12.5 133t-10.5 139h-102t-94 2q4 -47 9 -92t9 -90q4 -47 5 -94t8 -92q4 -35 4 -58.5t-2 -58.5q-2 -23 -11.5 -27t-38.5 -4q-43 0 -62 19.5t-26.5 48.5t-8.5 63.5t-3 65.5q-10 123 -19.5 245t-17.5 244q-2 34 -2 67q0 25 1 50z" />
<glyph unicode="I" horiz-adv-x="579" d="M199 1153q-5 20 -5 34q0 17 7 27q12 18 55 23q13 3 27 3h7q18 -1 34 -5q31 -6 38 -20.5t11 -49.5l20 -432q4 -129 7 -258t8 -260q2 -41 3 -81t5 -81v-11q0 -69 -76 -69q-12 0 -22 -1h-5q-8 0 -16 3q-59 14 -61 74q-10 266 -16.5 526.5t-14.5 522.5q0 6 -2 27.5t-4 27.5z " />
<glyph unicode="J" horiz-adv-x="704" d="M136 45q0 24 24 39q37 23 59.5 53.5t35.5 64.5t21.5 70.5t14.5 73.5q14 80 22.5 151.5t12.5 142.5t5 144.5t1 153.5q0 47 -2 94t-6 96q-29 2 -49.5 4.5t-38.5 6.5q-16 4 -32 9t-28 15t-21.5 24.5t-2.5 33.5q6 23 21 25q8 2 17 2q7 0 15 -1q74 -2 146.5 -4t144.5 -6 q47 -4 70.5 -14.5t27.5 -59.5q0 -18 -9.5 -27.5t-24.5 -12.5t-33.5 -3t-32.5 -2q-2 -23 -3.5 -38t-1.5 -40q0 -121 3 -226v-46q0 -84 -7 -174q-8 -94 -17 -186.5t-30 -184.5q-12 -66 -44 -124t-89 -103q-33 -23 -69 -24h-2q-34 0 -74 30q-24 17 -24 43z" />
<glyph unicode="K" horiz-adv-x="978" d="M197 1056v134q0 25 15 39q12 11 32 11q6 0 12 -1q16 -4 34.5 -9t35.5 -11q45 -14 45 -66q-1 -52 -1 -97v-44q1 -62 3 -140q0 -12 1 -23t3 -22l12 -6q10 20 20.5 38t16.5 38q23 66 42 128t38 130q12 39 22.5 52.5t38.5 15.5q6 1 11 1q28 0 59 -16q37 -20 45 -45 q6 -29 -2 -53q-23 -70 -46.5 -132.5t-47.5 -127.5q-10 -29 -23.5 -54.5t-27.5 -52.5q-10 -20 -10 -39t10 -38q59 -127 115.5 -246t117.5 -248q10 -23 23.5 -40t42.5 -28q23 -6 41 -20q16 -13 16 -37v-6q0 -47 -47 -59q-34 -11 -64 -11q-32 1 -58 13q-52 24 -91 100 q-49 98 -88 193.5t-86 197.5q-14 33 -31 64.5t-37 72.5v-4q4 -113 15.5 -235.5t23.5 -237.5q4 -25 8 -49.5t6 -48.5q4 -35 -14 -53q-15 -14 -41 -14q-6 0 -12 1q-10 2 -21.5 2t-21.5 4q-31 6 -45.5 22.5t-18.5 49.5q-16 59 -20 121.5t-8 124.5q-8 159 -24 313 q-15 138 -15 279v35q-4 74 -4 134z" />
<glyph unicode="L" horiz-adv-x="704" d="M179 1092v31q0 31 1 63q4 35 12 44q6 7 30 7h11q43 -2 67 -5t34 -14.5t12 -35t2 -64.5q0 -120 -1 -234v-77q0 -77 1 -156q2 -127 2 -258t12 -258q2 -10 4.5 -19.5t6.5 -23.5q41 -2 76.5 -5t70.5 -3q51 0 66 -35q4 -7 4 -16q0 -5 -1 -11q-3 -16 -11 -24q-12 -10 -30 -19.5 t-34 -9.5q-54 0 -106 -2h-17q-44 0 -88 8q-41 6 -82 37q-10 8 -15 26.5t-7 35.5q-16 229 -16 451q1 7 1 14v51q0 204 -4 411q0 47 -1 91z" />
<glyph unicode="M" horiz-adv-x="1161" d="M117 43q-1 8 -1 15q0 16 3 30q4 22 8 41q6 41 15.5 81t13.5 79q2 23 2 36v25v26.5t2 37.5q8 90 12 179t29 179q6 27 6 54.5t4 54.5q8 51 16.5 101t18.5 101q4 14 14 26.5t23 20.5q22 12 45 12q16 0 32 -6q40 -14 62 -53q25 -47 49.5 -92t52.5 -96q29 29 43.5 63.5 t24.5 69.5q12 41 24.5 80t26.5 80q9 29 33 42q20 11 45 11h8q39 -4 58.5 -16.5t27.5 -44.5q6 -29 10 -59.5t9 -61.5q10 -59 19 -117.5t15 -118.5q6 -61 11.5 -114.5t11.5 -103.5t11 -102t11 -114q6 -63 13.5 -112t15.5 -119q23 8 35 13t24 9q16 6 44 -2t34 -20q7 -13 7 -26 q0 -5 -1 -11q-4 -19 -16 -35q-18 -27 -34.5 -51.5t-47.5 -40.5q-39 -19 -79 -19q-21 0 -42 5q-20 4 -31.5 18t-19.5 33q-23 53 -33 93t-16 95q-4 45 -8 80t-7 68.5t-7.5 69.5t-8.5 81q-10 84 -16 164t-21 162q-29 -35 -48 -67t-29 -68q-16 -37 -35 -45.5t-43 -12.5 q-9 -2 -18 -2q-39 0 -66 43q-16 25 -29.5 49.5t-30.5 49.5q-8 12 -28 38q-10 -59 -20.5 -110t-14.5 -101q-4 -57 -8 -105t-9.5 -94t-9.5 -94.5t-10 -105.5q-4 -51 -6 -104.5t-19 -100.5q-4 -10 -16 -18t-28 -14q-14 -7 -32 -9q-6 -1 -12 -1q-10 0 -18 3q-23 4 -37 21.5 t-14 46.5z" />
<glyph unicode="N" horiz-adv-x="978" d="M152 53q2 51 3 90t2 75t2 76t1 93q0 102 3 190.5t9 172.5t15.5 169t19.5 181q2 16 4 34.5t6 36.5q8 63 74 64q41 -2 61.5 -15.5t36.5 -54.5q12 -31 23.5 -60.5t25.5 -57.5q63 -129 102.5 -278t84.5 -284q8 141 18 292t21 292q3 36 3 65v14q-1 34 6 54.5t29 26.5 q11 3 29.5 3t42.5 -3q55 -6 53 -60q-4 -246 -20 -501.5t-31 -499.5q-2 -25 -4 -55.5t-4 -55.5q-4 -70 -51 -82q-20 -6 -54 4.5t-49 30.5q-20 27 -28 53q-41 96 -72 195.5t-58.5 200t-54 201t-61.5 198.5q-16 -100 -20.5 -201.5t-5.5 -203t-1 -204t-6 -202.5q0 -76 -57 -76 q-59 2 -78.5 24.5t-19.5 57.5z" />
<glyph unicode="O" horiz-adv-x="704" d="M119 475q-8 82 -8 163q0 180 41 357q10 37 37.5 96.5t62.5 106.5q8 0 2 -2t-2 2q37 33 83 36h12q40 0 77 -18q43 -20 77 -56t44 -79q35 -133 56.5 -262t25.5 -266v-31q1 -106 -11 -198q-14 -106 -55 -205q-12 -29 -28.5 -57.5t-38.5 -49.5q-22 -22 -50 -32q-14 -5 -29 -6 q-17 0 -36 6q-80 23 -134.5 71.5t-76.5 126.5q-18 68 -29.5 148t-19.5 149zM274 612.5q0 -102.5 11.5 -196.5t34 -168t55.5 -109q3 -3 6 -3t7 3q7 6 14.5 19.5t14.5 30t13 32.5q29 95 34 191q2 40 2 80q0 56 -4 113q-7 97 -20.5 194.5t-19.5 191.5q-2 10 -6 29.5t-10 37.5 q-7 18 -15 28q-5 7 -11 6q-3 0 -7 -2q-33 -37 -54.5 -112t-33 -169t-11.5 -196.5z" />
<glyph unicode="P" horiz-adv-x="681" d="M165 174q1 66 4 128.5t6 128t3 136.5q6 123 26.5 242t39.5 242q6 35 14 68.5t37 62.5q35 31 92 51q27 10 55 10q31 0 62 -12q51 -18 79.5 -59.5t32.5 -94.5q1 -16 1 -31q0 -62 -13 -124q-16 -78 -52 -143.5t-91 -113t-129 -65.5q-13 -117 -13 -236v-44q3 -142 3 -283 q-4 -41 -11.5 -51.5t-46.5 -14.5q-4 -1 -9 -1q-25 0 -51 20q-32 22 -36 47q-3 58 -3 111v26zM365 791q25 20 45 58t32 83t14 92q0 5 1 10q0 41 -11 76q-18 -16 -33.5 -54t-27.5 -84q-13 -46 -19 -94q-4 -27 -3 -52q0 -18 2 -35z" />
<glyph unicode="Q" horiz-adv-x="841" d="M158 730q26 245 141 468q18 39 59 39q10 0 21 -2q88 -16 145.5 -69.5t91 -125t49 -154.5t17.5 -159q0 -74 1 -141v-44q0 -44 -1 -86q-2 -65 -9 -130.5t-24 -137.5q-8 -31 17 -51q20 -16 40.5 -32.5t43.5 -30.5q16 -10 24 -24q5 -7 5 -17q0 -7 -3 -15q-4 -8 -11 -19 t-16.5 -20.5t-18.5 -16.5q-7 -5 -12 -5h-3q-59 16 -83.5 41t-47.5 37q-18 -14 -40 -28.5t-47.5 -25t-52 -11.5t-53.5 14q-86 31 -136 103.5t-69 156.5q-36 163 -36 328q0 79 8 158zM306 670q-6 -62 -6 -125q0 -154 40 -314q10 -35 23.5 -67.5t48.5 -65.5q25 10 40 24.5 t11 18.5q-23 45 -41.5 85t-34.5 81q-17 39 -17 61q0 25 52 31q12 2 23.5 -8t22.5 -24.5t22.5 -29.5t23.5 -26q8 100 16 203q6 63 6 125q0 41 -2 81q-6 101 -30.5 195.5t-81.5 178.5q-92 -211 -116 -424z" />
<glyph unicode="R" horiz-adv-x="823" d="M164 377q0 4 1 0t-1 0q2 188 16.5 368.5t75.5 360.5q12 35 36.5 67.5t57.5 53t70 21.5h3q36 0 73 -27q45 -29 65.5 -67t28.5 -89q3 -22 3 -42q-1 -35 -9 -65q-14 -48 -40 -91.5t-58.5 -84.5t-63.5 -82q63 -72 90 -149.5t55 -163.5q23 -74 47.5 -147.5t71.5 -139.5 q14 -10 18.5 2.5t8.5 18.5q16 33 41.5 37t54.5 4q34 0 34 -29q0 -5 -1 -10q-2 -20 -6.5 -38.5t-8.5 -37.5q-14 -43 -45.5 -57.5t-66.5 -18.5q-12 -1 -23 -1q-79 0 -135 61q-29 33 -47 69.5t-33 77.5q-41 106 -70.5 207.5t-78.5 204.5q-4 -25 -9 -47q-4 -20 -6 -40t0 -36 q4 -117 4 -220.5t17 -203.5q1 -8 1 -16q0 -51 -59 -56q-16 2 -31.5 3t-28.5 7.5t-22.5 17.5t-9.5 34q-4 82 -11 169t-9 175zM342 840q33 23 56.5 57.5t35.5 73.5q11 36 11 70v5q-1 36 -19 64q-43 -61 -58.5 -128.5t-25.5 -141.5z" />
<glyph unicode="S" horiz-adv-x="671" d="M141 177q-1 11 -1 22q0 17 2 31q3 24 15.5 44.5t37.5 28.5q10 3 19 2q32 0 58 -31q16 -23 19.5 -47t4.5 -48.5t7 -51.5t31 -51q8 10 13 17t9 18q29 79 34 163q1 20 1 40q0 63 -12 126q-10 51 -22.5 100.5t-24.5 98.5q-20 66 -46 127t-67 119q-29 41 -38 87 q-4 23 -4.5 45.5t4.5 44.5q9 44 35 82t67 64q31 20 67 26q16 3 33 3q20 0 38 -4q34 -8 62.5 -28.5t44.5 -53.5q14 -37 19 -74q1 -10 1 -19q0 -55 -42 -61q-10 -1 -19 -1q-30 0 -53 14q-31 20 -35 55q-2 14 -2 25.5v23.5q-4 10 -7 8t-9 -4q-46 -51 -46 -122q0 -8 1 -17 q2 -29 11 -59.5t30 -57.5q47 -57 69.5 -122.5t42.5 -131.5q29 -88 45 -175q11 -59 12 -119q0 -29 -3 -58q-4 -45 -11.5 -89t-21.5 -85q-25 -72 -82 -106q-34 -20 -74 -20q-26 0 -55 9q-55 18 -95 61.5t-57 102.5q-4 20 -6 48z" />
<glyph unicode="T" horiz-adv-x="765" d="M127 1147q-6 13 -6 22q0 22 31 29q96 29 191 34t194 11q7 1 13 1q24 0 44 -12q26 -15 39 -44q4 -11 4 -24q1 -16 -7 -34q-14 -30 -42 -34q-23 -4 -47.5 -5.5t-53.5 -5.5q0 -35 -1 -59.5t1 -58.5q6 -109 10.5 -225.5t5.5 -234.5t2 -232.5t3 -221.5q-2 -35 -14.5 -56.5 t-32.5 -23.5q-12 0 -29.5 5.5t-35 14.5t-31 21.5t-17.5 26.5q-2 6 -2 20q2 146 2 291q0 109 -1 217q-3 252 -19 508q-35 -6 -53.5 -5t-49.5 -9q-12 -4 -23 -4q-29 0 -48 28q-8 10 -15.5 30t-11.5 30z" />
<glyph unicode="U" horiz-adv-x="946" d="M183 806v55q0 164 5 329q2 35 13.5 44t46.5 9q33 0 55 -8q35 -12 45 -25.5t10 -50.5q-4 -172 -7 -342v-36q0 -152 22 -306q8 -57 13 -113.5t11 -115.5q4 -27 7.5 -47.5t9.5 -24.5q35 29 53 65.5t22 73.5q25 184 44.5 368.5t19.5 373.5q0 35 1 68.5t9 70.5q2 10 9.5 19.5 t15.5 13.5q27 12 54.5 9t50 -16.5t36.5 -37t12 -54.5q-10 -135 -14 -277q-3 -95 -3 -187q0 -46 1 -91q2 -80 2 -175t23 -173q12 -41 31.5 -75.5t60.5 -55.5q16 -10 34 -22q12 -9 12 -25q0 -7 -3 -16q-8 -23 -33 -38.5t-55 -10.5q-47 4 -82 27.5t-64 56.5q-12 12 -23.5 27.5 t-25.5 31.5q-16 -29 -33.5 -46.5t-36.5 -43.5q-30 -39 -58 -53q-23 -11 -47 -11q-5 0 -11 1q-30 3 -57 21.5t-52 43.5q-35 39 -51 86t-23.5 97t-10.5 101.5t-11 100.5q-27 193 -28 384z" />
<glyph unicode="V" horiz-adv-x="794" d="M127 1147v9q0 21 8 29q10 9 41 9q90 0 109 -86q39 -172 60.5 -339t49.5 -341q4 0 8.5 -1t10.5 -1q12 66 26.5 130.5t28.5 129.5q29 133 58.5 255t54.5 257q10 35 45 37q13 2 26 2q43 1 70 -27q24 -25 25 -63q0 -16 -5 -35q-14 -66 -30.5 -113t-28.5 -112 q-41 -215 -88 -426t-100 -424q-10 -49 -52 -63q-12 -4 -25 -3q-29 0 -54 23q-20 16 -36 37.5t-20 50.5q-18 102 -40.5 202.5t-41.5 202.5q-10 66 -16 130.5t-16 130.5q-16 106 -38 198t-30 201z" />
<glyph unicode="W" horiz-adv-x="1101" d="M174 1174q-2 14 -2 24q0 19 7 25q11 10 52 2q47 -8 76 -31t39 -76q14 -98 31.5 -196.5t17.5 -196.5q0 -29 2 -66.5t4 -77.5t4.5 -78t4.5 -65q0 -4 5 -5t9 5q2 0 15.5 33t29.5 73t29.5 74.5t15.5 38.5q6 16 10 29.5t11.5 24t18.5 15.5t34 3q29 -2 45 -6t26.5 -13.5 t17.5 -26.5t15 -44q12 -41 20.5 -82t20.5 -82q4 -14 13.5 -34.5t13.5 -16.5q10 6 16 23.5t6 52.5q4 82 16.5 169t27 173t26.5 171t16 165q4 39 22 51q12 8 35 8q11 0 25 -2q10 -2 21.5 -5t23.5 -7q18 -8 29.5 -14.5t17 -15.5t5.5 -22.5t-3 -33.5q-41 -217 -66.5 -429 t-41.5 -429q-6 -61 -12 -126t-13 -126q-8 -41 -55 -52q-15 -3 -29 -3q-29 0 -54 14q-38 20 -58 67q-35 86 -64.5 172t-64.5 170q-27 -100 -66 -193t-74 -192q-12 -33 -49 -39q-5 -1 -11 -1q-14 0 -32 4q-24 6 -44.5 18t-34 33.5t-13.5 52.5q0 252 -21.5 504t-50.5 499 q-4 23 -8 46.5t-8 46.5z" />
<glyph unicode="X" horiz-adv-x="825" d="M168 1174q-6 16 -6 26q0 22 26 22q9 0 21 -3q20 -4 38.5 -13.5t41.5 -13.5q27 -6 40 -21.5t23 -37.5q10 -23 22.5 -51.5t27 -59.5t27.5 -60.5t26 -50.5q29 72 50 140.5t42 138.5q13 43 27 51q4 2 11 2q16 0 44 -12q20 -8 36.5 -17.5t43.5 -19.5q20 -8 11 -29.5t-13 -36.5 q-37 -109 -80 -213t-72 -215q-6 -31 0 -57q31 -98 69 -192.5t76 -188.5q14 -35 26.5 -59.5t24 -47t23.5 -46t29 -56.5q8 -13 8 -26q1 -13 -7 -25q-16 -26 -52 -31q-33 -4 -60.5 11.5t-44.5 50.5q-25 51 -45 98t-40.5 92t-43 91t-49.5 100q-10 0 -12 -6.5t-4 -10.5 q-29 -86 -56.5 -172t-56.5 -172q-10 -31 -24 -53q-16 -23 -34 -32q-10 -5 -22 -5q-10 0 -20 3q-24 7 -52 36q-16 16 -16 38q0 11 4 23q47 147 104.5 294t92.5 300q4 10 1 22.5t-7 22.5q-25 53 -50.5 114l-51 122t-51.5 121.5t-46 114.5z" />
<glyph unicode="Y" horiz-adv-x="753" d="M152 1190q0 25 15 35t38 -4q35 -23 63.5 -48.5t38.5 -74.5t28.5 -98.5t37.5 -104.5q27 31 43 64.5t26.5 69.5t17.5 71t17 69q2 10 5 24.5t9.5 27t15.5 19.5t25 7q18 -2 35 -16t33 -27q33 -27 33 -48q0 -19 -15 -50q-16 -41 -28 -83t-23.5 -84t-26 -83t-36.5 -80 q-23 -41 -23 -88q2 -141 5 -283.5t3 -285.5v-40t-1 -42.5t-3 -35.5t-6 -21q-4 -4 -33 -8q-10 -2 -20 -2q-21 0 -47 7q-29 6 -37 19.5t-4 42.5q11 117 11 234q0 51 -2 102q-7 168 -15 336q-2 29 -25 53q-31 37 -51 80t-35.5 87t-29 90t-29.5 89q-6 18 -8 38.5t-2 41.5z" />
<glyph unicode="Z" horiz-adv-x="700" d="M104 1176q7 22 37 30q43 8 90 13q43 4 85 8t83 6q20 0 43 -2t43 -8q59 -20 59 -79q0 -13 -3 -28q-12 -70 -24.5 -142.5t-27.5 -142.5q-6 -35 -13 -69.5t-17 -69.5q-18 -61 -32.5 -124.5t-25.5 -129.5q-10 -68 -24.5 -130t-28.5 -130q-4 -12 -6 -26.5t-6 -34.5q41 0 77 -1 h14l58 3h9q49 0 75 -41q14 -21 14 -43q0 -9 -2 -17q-8 -32 -40 -41q-16 -4 -35 -5t-35 -1q-47 0 -101 1h-36q-35 0 -66 -1q-7 -1 -14 -1q-28 0 -48 14q-26 16 -44 41q-6 10 -6 25.5t4 27.5q35 117 60.5 233.5t41.5 233.5q10 70 29.5 136.5t34.5 133.5q14 68 28.5 129.5 t26.5 132.5q-29 5 -56 5q-14 0 -27 -1q-40 -4 -79 -14q-12 -3 -22 -3q-23 0 -39 16q-22 24 -43 50q-13 17 -13 33q0 7 2 13z" />
<glyph unicode="[" horiz-adv-x="643" d="M133 -29v90v71t2 71q0 47 1 94t3 94q4 70 5 140.5t3 142.5q2 57 1 115.5t-3 115.5q-2 37 -2 75v77v43t4 43q0 6 1.5 13t1.5 15q2 12 10 24.5t35 16.5q20 4 28 5q23 4 44.5 6t43.5 2h22.5t22.5 -2q6 -2 21 -2q18 0 29 2h26h8q20 0 40 -2.5t36 -6.5q43 -10 39 -49 q-2 -20 -15.5 -38.5t-33.5 -20.5q-35 -4 -70 -4t-69 -2h-11q-10 0 -20 1t-21 1h-18q-2 -4 -2 -8q-4 -16 -4 -23q4 -238 1 -472t-7 -482q-2 -31 -2 -62.5v-62.5h16h12q20 0 31 2q8 2 25 2q47 0 100 -31q41 -23 31 -67q-10 -41 -58 -41h-4q-49 2 -100 6t-103 8q-18 2 -34.5 10 t-32.5 19q-23 12 -28 32.5t-5 38.5z" />
<glyph unicode="\" horiz-adv-x="677" d="M88 1192q35 49 86 29q16 -8 21 -27q53 -160 106 -319.5t96 -323.5q31 -111 68 -220.5t72 -219.5q8 -25 17 -49.5t15 -49.5q10 -39 -16 -51q-27 -10 -55.5 1t-38.5 40q-10 23 -16.5 46.5t-12.5 45.5q-41 131 -81 260t-75 260q-37 129 -79.5 256t-83.5 256q-6 16 -12.5 33 t-10.5 33z" />
<glyph unicode="]" horiz-adv-x="671" d="M135 -51q12 25 45 28q8 2 29 3q16 0 32.5 -1.5t32.5 -3.5q20 -4 33 -4q14 0 28.5 -1t29.5 -3q6 0 11 -1t9 -1l-4 334q-2 201 -3 398.5t-5 396.5q-6 2 -21 2q-10 0 -21.5 -1t-27.5 -3q-10 -2 -21.5 -4.5t-23.5 -2.5q-53 0 -84 41q-10 12 -20.5 31t-6.5 47l3 8h8q12 4 20 5 q12 2 24.5 4t24.5 4q35 2 63.5 3t55.5 1h4q23 0 45.5 -1t44.5 -5q80 -14 80 -97v-151q0 -63 -1 -126t1 -128v-84t2 -84q2 -31 3 -62.5t1 -64.5q2 -47 2 -96v-97v-86t2 -88q2 -41 3.5 -84t3.5 -84q4 -37 -15 -57q-16 -16 -43 -16q-8 0 -10 2q-18 2 -35.5 4t-36.5 6 q-12 2 -24.5 3t-24.5 5q-12 2 -24.5 2t-24.5 2q-16 2 -31.5 3t-31.5 3q-27 6 -47.5 16.5t-36.5 26.5q-27 33 -17 58z" />
<glyph unicode="_" horiz-adv-x="1024" d="M16 -78q-4 39 5.5 50.5t41.5 4.5q10 -2 18.5 -1t18.5 1q135 8 269.5 18.5t271.5 16.5q76 4 150.5 1t150.5 -7q35 0 57 -29q23 -33 15 -57t-47 -31q-27 -4 -53.5 -2t-55.5 2q-59 4 -118.5 4.5t-121.5 -6.5q-59 -4 -119.5 -7t-119.5 -7q-72 -4 -143.5 -9t-143.5 -9 q-29 -2 -50.5 15t-25.5 52z" />
<glyph unicode="a" horiz-adv-x="626" d="M53 111q-1 17 -1 34q0 48 8 95q12 63 34 125q45 123 182 129q35 0 68 2h4q31 0 55 -29q8 -10 15.5 -23.5t9.5 -27.5q6 -29 5 -53.5t3 -53.5q6 -41 12.5 -82t16.5 -80q6 -68 78 -86q20 -6 32 -14q22 -13 22 -30q0 -18 -24 -29q-29 -14 -56 -14q-28 0 -52 16 q-35 14 -64.5 30t-64.5 39q-10 -12 -23.5 -24t-25.5 -23q-18 -23 -38 -31t-41.5 -8t-43 7.5t-43.5 13.5q-39 16 -52.5 48t-15.5 69zM194 206q-1 -8 -1 -17q0 -26 8 -54q47 39 66 101q11 36 11 74q0 27 -6 55q-18 -18 -35.5 -43t-28 -53.5t-14.5 -62.5z" />
<glyph unicode="b" horiz-adv-x="507" d="M77 898q2 77 2 146q0 46 -1 89q2 18 1 26t1 19q2 8 3 16t9 12q6 4 21.5 9.5t34 9.5t34.5 5h9q8 0 12 -1q12 -6 14 -17.5t2 -21.5q2 -63 2 -136v-146.5v-146.5v-136q0 -27 1 -53.5t3 -55.5q23 -8 43.5 -12t38.5 -15q35 -16 60.5 -34.5t44.5 -51.5q18 -35 28 -65 q11 -28 13 -60q1 -8 0 -18q1 -24 -3 -51q-6 -37 -16 -82q-16 -37 -33 -78q-23 -47 -50 -63q-20 -12 -52 -13q-12 0 -25 2q-74 10 -137 31q-31 8 -42 22.5t-11 45.5q0 92 2 180q1 44 1 89t-1 91q0 57 -3 113.5t-5 116.5q-2 61 -2 128q0 51 1 106zM228 226q1 -46 5.5 -81.5 t10.5 -48.5q73 96 73 163v5q-3 68 -79 135q-6 -35 -8 -81q-2 -33 -2 -66v-26z" />
<glyph unicode="c" horiz-adv-x="520" d="M94 236v32q4 66 22.5 123.5t71.5 100.5q40 34 92 36h14q44 0 85 -14q10 -4 20.5 -14.5t10.5 -20.5q2 -10 -8.5 -22.5t-20.5 -16.5q-55 -16 -89 -47t-38 -90q-4 -35 -5 -71q0 -7 -1 -14q0 -28 4 -56q4 -41 23.5 -57.5t60.5 -20.5q16 -2 33.5 -4t33.5 -6q25 -6 38.5 -19.5 t13.5 -29t-13.5 -27.5t-40.5 -14q-21 -2 -43 -2q-33 0 -66 5q-56 9 -102 37q-44 30 -72 82q-24 46 -25 111q0 9 1 19z" />
<glyph unicode="d" horiz-adv-x="677" d="M127 235.5q0 51.5 10 99.5t29 89q20 48 60 76q37 27 83 26h6q16 -2 26.5 -3t31.5 -5q12 166 31.5 329t29.5 324q4 41 16 55q10 11 34 12q7 0 14 -1q88 0 88 -67v-9q-2 -35 -12.5 -81t-12.5 -81q-16 -164 -19 -338t-3 -335q0 -14 2 -35t6 -43.5t7 -44t7 -35.5 q6 -29 13.5 -49.5t27.5 -42.5q6 -8 12.5 -16.5t10.5 -18.5q3 -12 3 -22q0 -15 -6 -25q-12 -18 -44 -19q-23 2 -46.5 5.5t-42.5 21.5q-16 16 -24 25.5t-13.5 15.5t-7.5 11.5t-8 13.5q-4 -10 0 -2t0 2q-14 -35 -47 -69t-78 -34q-47 4 -85 22.5t-58 59.5t-30.5 89t-10.5 99.5z M281 253q-1 -11 -1 -22q0 -21 4 -43q4 -32 15 -57q14 25 25.5 59.5t17.5 71.5t9 75t3 69q-7 1 -12 1q-13 -1 -20 -7q-9 -10 -17 -27q-10 -23 -16 -54.5t-8 -65.5z" />
<glyph unicode="e" horiz-adv-x="532" d="M57 245q-1 9 -1 17q0 60 36 121q64 124 191 124q20 0 41 -3q49 -8 77.5 -52t42.5 -92q4 -16 -1 -36.5t-16 -40t-28.5 -36t-36.5 -24.5q-37 -20 -71 -28q-18 -4 -38.5 -2t-51.5 2q10 -25 15 -43.5t15 -34.5q23 -41 45 -47q6 -2 15 -2q20 0 51 12q16 6 32.5 11t33.5 9 q14 8 24 4q16 -6 35.5 -10t19.5 -26q0 -16 -9 -32t-21 -26q-20 -12 -44 -18t-46 -12q-33 -7 -64 -7q-51 1 -96 21q-72 34 -111 115q-33 68 -39 136zM217 287q63 16 80 44q6 10 6 23q0 22 -18 52q-43 -22 -59 -50q-11 -20 -11 -47q0 -11 2 -22z" />
<glyph unicode="f" horiz-adv-x="512" d="M72 539q16 10 31.5 18t33.5 18q0 16 -1 53.5t-1 78.5v77.5v55.5q2 80 20.5 152.5t55.5 146.5q4 6 7 12t9 16q29 41 55 51q10 4 24 4q18 0 42 -8q82 -22 82 -106v-12q-16 4 -33.5 7t-40.5 7q-33 -43 -50 -107.5t-24 -134.5q-7 -59 -7 -118q0 -11 1 -23q1 -70 5 -123 q23 0 37 1t30 -1q14 -2 27.5 -3t23.5 -9q20 -10 25 -37q0 -6 -10.5 -13t-20.5 -12q-16 -6 -32.5 -10t-34.5 -8q-47 -6 -47 -57q0 -10 4 -71q2 -30 3 -56.5t2 -56t3 -66.5q2 -47 4 -91t2 -91q0 -35 -13 -45q-8 -5 -21 -5q-11 0 -27 4q-8 2 -16.5 4.5t-18.5 4.5q-43 12 -43 57 q-2 53 -4 99t-4.5 90t-3.5 89.5t-1 100.5q0 8 -1 20.5t-1 22.5v24q-8 0 -16 5q-12 4 -27 12q-10 4 -19 13t-9 20z" />
<glyph unicode="g" horiz-adv-x="530" d="M42 295q17 84 77 158q16 20 43.5 30.5t57.5 12.5h11q25 0 49 -6q29 -9 50 -25q12 -10 26.5 -19.5t30.5 -13.5q25 -4 33 -15t10 -34q2 -41 2 -81t4 -81q10 -78 19.5 -154.5t19.5 -154.5q6 -62 6 -124q0 -38 -2 -74q-6 -99 -41 -195q-10 -27 -21 -52.5t-28 -48.5 q-39 -59 -88 -76q-23 -9 -51 -9q-31 0 -66 10q-20 4 -37.5 12t-35.5 18t-25.5 28.5t0.5 35.5q10 18 25.5 17t33.5 -9q25 -10 41.5 -14t28.5 0t23.5 17t25.5 38q41 72 58 148q13 62 13 127q0 16 -1 32q-2 57 -7.5 114t-21.5 118q-49 -35 -98 -35l-78 22q-33 16 -55.5 42 t-30.5 65q-9 47 -9 93q0 42 8 83zM181 184q3 -34 18 -59q49 35 59 84t14 102l2 41q0 17 -28 27q-23 -25 -38 -57.5t-22 -68.5q-6 -26 -6 -50q0 -10 1 -19z" />
<glyph unicode="h" horiz-adv-x="626" d="M118 1190v5q0 6 1 13q2 4 4 10.5t6 10.5q12 8 24.5 8t23.5 -2t22.5 -6t23.5 -6q33 -6 33 -45q2 -35 2 -67t2 -67q0 -53 1 -118.5t3 -134t3 -134t3 -116.5v-12.5t2 -16.5q29 -4 58.5 -7t58.5 -7q80 -6 92 -82q6 -29 10.5 -58.5t6.5 -60.5q0 -27 1 -62.5t6 -72.5t14 -71 t28 -56q7 -9 7 -19q0 -9 -6 -20q-10 -17 -30 -17q-5 0 -10 1q-37 6 -72 18t-49 57q-10 29 -16 60.5t-11 62.5q-2 12 -3 36t-2 50.5t-2 50t-1 35.5q-6 2 -16 2q-4 -12 -8 -33.5t-7.5 -46t-6.5 -47t-5 -35.5q-6 -39 -9 -77.5t-7 -77.5q-5 -55 -46 -55q-8 0 -18 2 q-16 4 -34.5 10t-30.5 16q-10 8 -14.5 23.5t-4.5 27.5q-1 30 -1 65v36q1 56 1 115t-1 115t-5 102q-6 74 -10 161.5t-6 178t-3 178.5t-1 161q0 11 -1 19z" />
<glyph unicode="i" horiz-adv-x="356" d="M119 708q6 16 33 20h36q59 -4 72 -26q4 -7 4 -18q0 -21 -18 -57q-8 -12 -23.5 -11.5t-32 9t-33 21.5t-28.5 26q-12 15 -12 27q0 5 2 9zM125 492q26 13 49 13t43 -14q39 -28 43 -79q3 -55 3 -114q0 -30 -1 -61.5t-1 -61.5q0 -60 3 -114q0 -16 -2 -24q-4 -41 -14 -52.5 t-45 -11.5h-4q-62 0 -68 66q-4 45 -4 89v89q-1 42 -1 90v49v48q0 47 -1 88z" />
<glyph unicode="j" horiz-adv-x="436" d="M53 -602q41 43 72 111.5t52.5 146.5t31.5 154q8 64 8 115v20q-2 86 -9 181t-11 181q-4 37 -10.5 73t-10.5 73q-1 7 -1 13q0 30 32 42q20 6 36 6q53 0 68 -68q18 -92 29 -194q10 -86 10 -167v-28q0 -23 1 -61v-27q0 -26 -1 -55q0 -41 -5 -95.5t-15.5 -110.5t-23.5 -106.5 t-27 -80.5q-18 -37 -39 -72t-43 -70q-25 -35 -64 -45q-12 -3 -23 -3q-27 0 -51 16q-17 13 -17 27q0 12 11 24zM137 696q0 8 10.5 15.5t24.5 12.5t30 8q10 2 19 2q6 0 12 -1q18 -2 32 -11t16 -30q1 -5 1 -11t-1 -13q-2 -15 -13 -19q-6 -2 -16 -6q-5 -2 -14.5 -2t-24.5 2 q-29 4 -52.5 16t-23.5 37z" />
<glyph unicode="k" horiz-adv-x="561" d="M84 934q0 70 2 138.5t4 137.5q0 37 33 37h4q10 -2 21.5 -2t23.5 -2q29 -4 41 -17.5t10 -41.5q0 -53 -3 -106.5t-3 -106.5q0 -111 2 -224.5t4 -224.5q0 -29 2 -57.5t2 -56.5q7 -2 11 -2q20 29 32.5 45t28.5 47q16 33 32.5 40t45.5 9q66 -8 66 -44q0 -22 -23 -54 q-23 -29 -35 -49.5t-35 -49.5q-14 -18 -12 -33.5t14 -31.5q14 -25 35 -60t42.5 -71.5t42 -72.5t34.5 -61q8 -11 8 -21q0 -5 -3 -9q-7 -12 -30 -15h-10q-33 -1 -59 11q-30 14 -52 47q-6 10 -18 31.5t-24.5 46t-23.5 46t-18 31.5q-6 14 -14 25.5t-18 24.5q-8 6 -11 4 q-2 -2 -2 -9v-29.5t2 -29.5q2 -37 4.5 -70.5t2.5 -72.5q2 -47 -18 -55q-11 -4 -26 -5q-14 0 -32 4q-60 11 -60 61v9q4 35 4 69q0 22 -2 44q-4 54 -6 110q-2 59 -5 117.5t-3 118.5q-2 104 -4 213.5t-4 216.5z" />
<glyph unicode="l" horiz-adv-x="399" d="M106 487q4 123 5.5 245t5.5 245q2 29 3 66.5t3 73.5t5 60.5t7 26.5q49 23 77 29q10 2 18 2q15 0 23 -7q13 -11 16 -42q2 -19 2 -44q0 -17 -1 -36q-6 -193 -12 -385.5t-6 -386.5q0 -61 9 -125t32 -123q4 -14 9 -28.5t5 -28.5q1 -5 1 -10q0 -44 -46 -44h-6 q-41 4 -65.5 19.5t-40.5 68.5q-36 104 -42 211q-4 66 -4 132q0 41 2 81z" />
<glyph unicode="m" horiz-adv-x="745" d="M39 63q4 41 17.5 92.5t23.5 92.5q10 39 21.5 75.5t17.5 77.5q12 61 63 66q18 2 36 3t36 -2t36.5 -13.5t39.5 -32.5l12 -12t8 -7q18 23 37 45.5t37 45.5q16 16 38 23q18 5 36 5h10q24 -2 45.5 -13t34.5 -32q29 -45 35 -95t12 -99q4 -16 4 -47v-48q0 -27 7 -48t30 -38 q25 -17 25 -34q0 -15 -15 -39q-16 -29 -40 -45q-19 -12 -40 -12q-5 0 -10 1q-35 6 -57.5 23.5t-26.5 58.5q-4 51 -9 113.5t-9 114.5q-2 14 -3.5 27.5t-5.5 33.5q-29 -33 -43 -65.5t-24 -65.5q-8 -23 -23.5 -39t-46.5 -20q-31 -2 -46 11t-36 56q-8 16 -12 30.5t-14 31.5 q-8 -25 -18.5 -53.5t-19.5 -57.5t-15.5 -58.5t-4.5 -56.5v-10q0 -62 -65 -62q-6 0 -13 1q-67 3 -67 58q0 9 2 19z" />
<glyph unicode="n" horiz-adv-x="569" d="M78 41q0 47 3 104.5t9 115.5t18.5 113.5t30.5 98.5q14 31 51 43q35 11 66 11q36 0 66 -14q58 -26 79 -103q4 -18 8.5 -45t7.5 -56.5t7 -57.5t8 -46t9 -38t13.5 -39t20.5 -36.5t33 -28.5q13 -8 13 -26v-7q-3 -22 -21 -36q-29 -21 -64 -21h-6q-39 2 -68 29q-27 27 -39 57.5 t-18 65.5q-4 18 -9 47t-10 59.5t-10.5 59t-9.5 47.5q-2 8 -4 14.5t-4 14.5q-14 -29 -22.5 -69t-11.5 -83t-3 -84v-72q-2 -23 -5 -41t-26 -26q-23 -10 -47 -10t-47 18q-19 12 -19 32q0 4 1 9z" />
<glyph unicode="o" horiz-adv-x="452" d="M40 286q5 52 15 105q8 33 20.5 54.5t24 34t20.5 17.5t11 5q47 24 92 26h9q41 0 83 -20q10 -4 19.5 -11.5t13.5 -17.5q29 -45 42 -96t13 -123q-6 -74 -28.5 -135.5t-73.5 -116.5q-39 -37 -83 -37h-5q-47 2 -88 39q-39 35 -54.5 79t-25.5 91q-7 37 -7 72q0 17 2 34z M176 262q2 -45 14.5 -87t30.5 -73q25 37 39 83t14 90t-13 80t-42 55q-27 -25 -36 -64q-7 -32 -8 -68q1 -8 1 -16z" />
<glyph unicode="p" horiz-adv-x="530" d="M96 162q-1 11 -1 22q0 75 24 148q10 37 29.5 69.5t39.5 65.5q29 43 70 50q22 4 45 4q20 0 41 -3q18 -4 37.5 -10t36.5 -14q14 -10 18 -16.5t8 -16.5q20 -60 20 -120q0 -33 -6 -67q-18 -92 -83 -168q-16 -16 -22.5 -23t-22.5 -20q-20 -16 -38 -28.5t-63 -28.5 q4 -57 11.5 -124.5t11.5 -117.5q2 -29 5 -77.5t7 -102t7 -103.5t5 -79q1 -5 1 -10q0 -54 -60 -60q-5 -1 -11 -1q-22 0 -42 15q-23 17 -27 44q-2 14 -2 27.5v27.5q-4 63 -9 159.5t-11 199t-11.5 197.5t-7.5 161zM233 168q31 18 52.5 47t32.5 61q8 28 8 55v11q-2 33 -17 59 q-37 -29 -57 -90q-19 -56 -19 -129v-14z" />
<glyph unicode="q" horiz-adv-x="581" d="M98 201q2 37 12.5 80t29 85t45 75.5t63.5 50.5q31 14 55 14q8 0 15 -2q30 -6 63 -41l4 -4q25 -12 38 -30.5t17 -39t5 -44t1 -46.5q0 -57 1.5 -125t1.5 -137.5v-138t2 -125.5q1 -51 1 -102v-51v-31q0 -61 3 -121q2 -29 8 -53.5t33 -45.5q13 -10 13 -20q0 -2 -1 -5 q-4 -12 -23 -22q-23 -10 -47 -10h-8q-29 2 -52.5 16.5t-39.5 37t-19 50.5q-5 46 -5 94q0 16 1 32q1 22 1 43q0 42 -3 83q-4 80 -4 160t-4 160q-2 6 -3 7t-3 11q-16 4 -30.5 5t-28.5 3q-43 4 -72 22.5t-45.5 44t-21.5 57.5q-4 23 -4 45q0 9 1 18zM252 287q-9 -22 -9 -51 q0 -37 13 -86q16 16 27.5 43.5t15.5 60.5t4 64.5t-4 56.5q-29 -39 -47 -88z" />
<glyph unicode="r" horiz-adv-x="464" d="M78 438q-1 5 -1 9q0 39 48 51q23 4 44 8t44 12q32 11 64 11h5q34 -1 70 -9q27 -6 43.5 -23t26.5 -42q-20 -14 -37.5 -22.5t-42.5 -8.5q-50 0 -78 -28q-26 -27 -26 -74v-7q0 -29 -1 -66.5t-2.5 -77.5t-2.5 -78v-24q0 -23 1 -42q4 -37 -10 -49q-8 -7 -22 -7q-11 0 -27 4 q-6 2 -12 4.5t-12 4.5q-33 4 -46.5 22.5t-17.5 52.5q-2 41 -3 90.5t-1 99.5t-1 99t-3 90z" />
<glyph unicode="s" horiz-adv-x="428" d="M41 38q-2 6 -2 11t2 10q4 23 33 23q8 -2 17.5 -2h17.5q10 0 20 -1t21 1q46 8 74 48q17 25 18 52q0 15 -6 31q-4 10 -19.5 18.5t-26.5 18.5q-18 16 -32.5 23.5t-32.5 21.5q-37 29 -45 71q-4 21 -4 37.5t4 28.5t9 20.5t13 16.5q44 47 104 54q18 2 37 2q41 0 83 -11 q18 -4 32.5 -16.5t10.5 -34.5q-4 -16 -16.5 -22.5t-33.5 -8.5q-16 -2 -36.5 0t-34.5 -4q-35 -16 -42 -38.5t27 -45.5q12 -8 27.5 -15.5t28.5 -15.5q43 -23 65.5 -58.5t24.5 -75.5v-8q1 -36 -15 -72q-18 -40 -57 -68q-45 -37 -93 -51q-19 -6 -38 -6q-32 0 -67 14 q-16 4 -31 12t-25 22q-8 6 -12 18z" />
<glyph unicode="t" horiz-adv-x="475" d="M74 653q0 8 13 16.5t24 16.5q10 6 22 9t29 10q-4 20 -6 66t-5.5 95t-6.5 94.5t-5 65.5q-4 27 3.5 37t35.5 16q10 2 21.5 4t21.5 2q29 0 48.5 -15t23.5 -44q2 -23 4 -69t3 -98t3 -99t4 -70q18 -10 35.5 -20.5t34.5 -20.5q-2 -41 -30 -55l-58 -29q0 -23 -1 -35t1 -36 q8 -88 15 -175.5t18 -175.5q4 -23 13 -44t19 -42q9 -19 9 -33q0 -18 -13 -30q-10 -8 -25.5 -13.5t-27.5 -5.5q-88 10 -107 91q-23 88 -28 172q-6 86 -8 160.5t-7 160.5q0 4 -4 21q-10 4 -22 8t-21 12q-10 10 -18 24.5t-8 28.5z" />
<glyph unicode="u" horiz-adv-x="608" d="M103 308q1 76 3 157q0 35 8.5 44t37.5 15q15 4 26 4q14 0 23 -6q16 -10 26 -35q6 -23 7.5 -30.5t5.5 -38.5q0 -61 3 -123q2 -37 2 -74q0 -25 -1 -49q0 -4 2 -16.5t8 -14.5q14 8 25.5 16.5t23.5 32.5q23 51 34 117t13 121q0 39 7.5 51.5t31.5 20.5q27 8 51.5 -3.5 t36.5 -33.5q12 -25 12 -57q1 -18 1 -38q0 -30 -2 -63.5t-2 -63.5q0 -20 1 -38q0 -41 6.5 -81t36.5 -75q13 -14 13 -30q0 -19 -15 -37q-16 -19 -39 -19q-10 0 -22 4q-35 14 -62.5 35.5t-50.5 56.5q-10 -8 -14 -12l-8 -8q-43 -51 -97 -51h-5q-56 2 -93 61q-14 23 -21 50.5 t-10 54.5q-3 64 -3 126v30z" />
<glyph unicode="v" horiz-adv-x="487" d="M47 487q4 18 21 29q18 8 32.5 8t30.5 -2q35 -4 49.5 -17t24.5 -50q6 -29 11 -63t11 -64h13q12 31 25.5 69.5t23.5 69.5q6 20 10 32.5t12 18.5q7 6 21 7h11q11 0 26 -1q10 0 20 -1t21 -1q38 -9 38 -40q0 -13 -6 -29q-35 -102 -69.5 -206t-69.5 -206q-4 -10 -7 -21.5 t-9 -23.5q-12 -23 -33 -23q-6 -1 -11 -1q-35 0 -65 22q-35 24 -45 80q-20 94 -41.5 188t-42.5 189q-4 10 -4 21q0 7 2 15z" />
<glyph unicode="w" horiz-adv-x="806" d="M63 471q-1 5 -1 10q0 26 28 39q20 10 40 10l42 -11q41 -21 49 -68q8 -49 14.5 -99.5t16.5 -97.5q4 0 6 -1t6 -1l13.5 31.5t11.5 33.5q8 39 33.5 46.5t54.5 11.5q23 2 45 -10.5t33 -38.5q18 -41 51 -82q27 61 52.5 119.5t47.5 117.5q10 25 29.5 33t40.5 10q9 1 18 1 q16 0 30 -4q24 -7 34 -32q4 -8 4 -19v-8q-2 -18 -6 -30q-10 -25 -21.5 -46t-23.5 -44q-20 -35 -39 -82t-33 -92t-24.5 -79t-12.5 -42q-12 -39 -24.5 -59.5t-53.5 -10.5q-29 6 -48 26t-35.5 43.5t-31 49t-32.5 43.5q-16 -33 -33.5 -65.5t-34.5 -67.5q-15 -29 -25 -33 q-4 -2 -11 -2q-11 0 -31 4q-49 10 -75 35t-36 82q-16 96 -33.5 189.5t-34.5 189.5z" />
<glyph unicode="x" horiz-adv-x="638" d="M60 58q8 20 22 36q25 31 51.5 66t52.5 65q12 14 22.5 28.5t22.5 31.5q-33 35 -68.5 74.5t-66.5 70.5q-20 17 -20 38q0 11 6 24q15 31 49 31q6 0 14 -1q51 -6 84 -47q14 -16 38 -41.5t42 -46.5q18 31 32.5 50.5t31.5 47.5q22 39 54 39q16 0 36 -10q43 -26 57 -52 q4 -7 4 -15q0 -23 -28 -58q-16 -20 -27.5 -37.5t-28.5 -40.5q-14 -15 -14 -32q0 -19 18 -39q35 -43 61.5 -88.5t61.5 -85.5q18 -22 18 -38q0 -14 -12 -30q-11 -20 -31 -26q-8 -2 -16 -2q-11 0 -22 5q-33 16 -55.5 37t-41 45.5t-37 52t-38.5 58.5q-33 -41 -61.5 -81 t-57.5 -75q-35 -41 -77 -41t-70 43q-9 15 -9 28q0 9 3 16z" />
<glyph unicode="y" horiz-adv-x="602" d="M89 290q1 62 3 118.5t2 87.5q0 27 24 27q4 0 9 -1q43 -4 86 -12q35 -6 35 -45q0 -23 -1 -43.5t-3 -42.5q-2 -12 -4 -50t-2 -81t3 -80t11 -49q29 8 46 52t27.5 97.5t15.5 105.5t9 77q4 23 7 36t11.5 18t21.5 4t36 -3q33 -6 49.5 -10t23.5 -13.5t7 -27v-47.5q0 -41 2 -92.5 t3 -105.5t2 -106.5t1 -93.5q0 -68 -2 -135.5t-9 -134t-23.5 -132t-47.5 -128.5q-16 -33 -34.5 -62.5t-41.5 -56.5q-43 -48 -85 -48h-8q-46 5 -95 38q-23 14 -19.5 35.5t27.5 31.5q45 16 70.5 49t46.5 74q51 113 58 228.5t7 230.5q-39 -20 -78 -26q-13 -1 -25 -1q-25 0 -47 7 q-34 10 -61.5 36.5t-42.5 69.5q-12 31 -14 87q-1 37 -1 77v40z" />
<glyph unicode="z" horiz-adv-x="581" d="M67 508q9 14 33 14q57 -4 110.5 -6t108.5 -6q16 0 40 -10.5t36 -20.5q29 -23 39 -46t-4 -58q-12 -29 -27.5 -54.5t-31.5 -52.5t-32.5 -50t-27.5 -50q-4 -6 -4 -15.5t6 -11.5q23 -2 42.5 -5t39.5 -5q35 -4 66 -17.5t47 -45.5q11 -19 11 -38q0 -17 -9 -32q-14 -27 -44 -27 q-7 0 -15 2q-48 12 -95 12l-27 -1q-61 -4 -122 -9q-6 -1 -13 -1q-33 0 -60 18q-32 22 -44 59q-10 27 -1 46.5t24 37.5q47 55 75.5 115.5t63.5 126.5q-16 2 -27.5 4t-21.5 0q-9 -1 -18 -1q-40 0 -65 22q-30 28 -52 69q-5 12 -5 22q0 8 4 15z" />
<glyph unicode="{" d="M209 639q-4 23 16 45q18 20 29.5 43t19.5 51q25 104 25 193v32.5t-2 32.5q0 10 -1 21.5t-1 23.5q-2 63 29 111q12 14 24 24.5t29 14.5q18 6 45 6q16 0 30.5 -2t30.5 -6h4q14 -4 33 -27q2 -2 3 -5t5 -5l9 -8l-7 -10q-12 -23 -27.5 -30t-31.5 -7q-18 0 -23.5 -5.5 t-7.5 -17.5q-4 -23 -6 -49.5t2 -54.5q6 -66 -2 -136.5t-33 -156.5q-4 -12 -11 -25.5t-13 -25.5q-4 -4 -4 -7.5t-2 -7.5q2 -2 3 -5t5 -5q16 -25 29 -47q12 -29 19 -50.5t11 -43.5q16 -106 25 -219q2 -16 1 -35t-1 -37v-55q2 -37 12 -97q6 -27 31 -28h2q14 0 20 -4l4 -5 q6 -4 12.5 -11t8.5 -15q4 -10 -3 -23.5t-20 -17.5q-33 -14 -55 -14h-8q-47 0 -78 24q-35 25 -45 66q-10 39 -15 75.5t-3 73.5q2 170 -35 359q-12 51 -51 69q-27 12 -31 33z" />
<glyph unicode="}" d="M274 1159q0 16 10.5 26.5l14.5 14.5q35 27 78 27q16 0 35.5 -4t42.5 -15q51 -18 57 -94q4 -45 6 -84t2 -76v-39.5t-2 -40.5q-2 -20 -2 -41.5v-41.5q0 -45 12 -103q0 -4 4.5 -7t6.5 -5q8 -8 12 -14q2 -2 2 -3.5t2 -3.5q6 -8 11 -15t9 -15q4 -10 2 -23.5t-12 -21.5 q-23 -16 -30 -41t-7 -58q0 -29 2 -57.5t7 -56.5q0 -14 1 -31t3 -33q2 -35 3 -68.5t3 -68.5q2 -31 3 -63.5t3 -63.5q2 -25 -6 -45.5t-19 -36.5q-8 -12 -10 -20q-10 -18 -41 -31q-23 -6 -47 -6q-18 0 -36.5 4t-41.5 10q-51 20 -51 74v6l4 4q4 6 13.5 15.5t25.5 9.5 q6 0 11 -1.5t12 -3.5q6 -4 14 -5t16 -3h9q14 16 14 51q0 72 -6 143.5t-13 143.5q-4 20 -4 42t-4 44q-4 35 -1 70t7 67q2 12 7.5 23.5t9.5 23.5l6 7q-16 16 -22.5 35.5t-10.5 37.5v9q-10 53 -9 107t3 108q0 20 1 41.5t1 44.5q0 18 -1 37.5t-3 37.5v21q-6 2 -10 3t-9 3 q-16 4 -29.5 7t-25.5 9q-31 12 -33 33z" />
<glyph unicode="&#xa3;" d="M127 610q4 12 21.5 22.5t35.5 10.5h43q6 0 15 6q2 61 5 125t3 129q-6 98 24 191q10 31 29 56.5t41 47.5q18 16 42 23.5t48.5 5.5t47 -12.5t38.5 -28.5q16 -23 28.5 -47.5t24.5 -48.5q16 -35 -12 -58q-20 -16 -55 2q-16 10 -28.5 21.5t-14.5 34.5q-2 10 -8.5 19.5 t-16.5 25.5q-12 -23 -24.5 -39.5t-16.5 -32.5q-10 -39 -16 -76t-10 -78q-4 -43 -4 -86v-86v-92h49q16 0 30.5 1t30.5 -3q25 -2 35 -12t12 -29q0 -45 -45 -55q-14 -2 -28.5 -1t-28.5 -1h-60q-12 -125 -15 -249t-32 -249q16 4 30.5 5t31.5 3q27 6 57 6q18 0 38 -1t36 -7 q20 -6 27.5 -20.5t3.5 -30.5q-6 -39 -50 -45q-51 -4 -102 -9t-104 -9q-31 -4 -60.5 -2t-56.5 18q-23 10 -29 28.5t8 36.5q47 53 58.5 117t17.5 129q4 61 8 123t9 123q0 6 -1 12t-1 13q-8 4 -16.5 4t-14.5 4q-12 4 -23.5 7t-21.5 9q-14 10 -25.5 20.5t-7.5 28.5z" />
<glyph unicode="&#xa9;" horiz-adv-x="1067" d="M53 520q6 49 23 101q10 35 19 71.5t22 71.5q14 39 28.5 76t30.5 73q29 59 69 107.5t87 89.5q35 31 72.5 55.5t84.5 32.5q25 4 48.5 9t48.5 12q59 12 109 -4.5t91 -53.5q86 -76 138.5 -168t62.5 -209q6 -43 12.5 -85t12.5 -83q-4 -23 -4 -42t-4 -39q-10 -47 -22.5 -96.5 t-27.5 -96.5q-18 -72 -61 -127t-96 -104q-39 -39 -80 -66q-18 -12 -39 -23.5t-43 -21.5q-92 -31 -195 -27q-41 0 -76.5 12.5t-70.5 34.5q-111 70 -162 172.5t-74 225.5q-10 53 -4 102zM178 440q4 -80 35 -148.5t74 -131.5q18 -31 46.5 -52.5t63.5 -25.5q55 -6 109.5 1 t103.5 42q23 18 45.5 36.5t44.5 39.5q53 53 91 114.5t55 137.5q14 59 27.5 118.5t7.5 120.5q-4 31 -10.5 61.5t-10.5 61.5q-10 76 -44 138.5t-83 117.5q-37 39 -90 39q-57 0 -106.5 -16.5t-90.5 -57.5q-43 -43 -81.5 -88t-65.5 -98q-39 -78 -63.5 -161t-45.5 -169 q-4 -20 -6 -40t-6 -40zM332 551q-4 -78 29.5 -134.5t105.5 -82.5q37 -14 74 -16.5t71 24.5q10 8 21.5 15.5t21.5 17.5q39 31 4 69q-25 25 -57 25q-23 0 -40 -9t-34 -20q-45 -29 -57 25q-2 10 -2 19.5v19.5q-6 96 63 153q16 14 31 23.5t39 1.5q35 -10 51 27q10 18 3 30.5 t-21 20.5q-49 33 -95 40t-81 -40q-8 -8 -21 -15q-47 -39 -73.5 -85t-32.5 -109zM332 551q6 63 32.5 109.5t73.5 84.5q12 6 21 15q35 47 81 40t95 -40q14 -8 21.5 -20.5t-3.5 -30.5q-16 -37 -51 -27q-25 8 -39 -1t-31 -24q-69 -57 -63 -153v-19.5t2 -19.5q12 -53 57 -25 q16 10 34 19.5t40 9.5q33 0 57 -25q35 -39 -4 -69q-10 -10 -21 -17.5t-22 -15.5q-35 -27 -71.5 -25t-73.5 17q-72 27 -105.5 83t-29.5 134z" />
<glyph unicode="&#xad;" d="M133 537q-4 23 2 29.5t27 8.5q53 4 105 8.5t106 8.5q35 2 69.5 3t69.5 3v-4q47 0 96 6q29 2 56.5 -17.5t35.5 -47.5q4 -12 -4 -26.5t-24 -21.5q-12 -4 -21 -4q-57 -4 -114.5 -4t-114.5 -2q-33 -2 -66.5 -4t-68.5 -6q-16 -2 -29.5 -3t-30.5 -3q-41 -4 -65.5 15.5 t-28.5 60.5z" />
<glyph unicode="&#xb4;" horiz-adv-x="806" d="M291 834q0 39 15.5 78.5t68.5 60.5q4 2 6 4t6 4q2 16 2 34.5t2 37.5q4 35 5 70.5t3 70.5q4 23 13.5 29t31.5 0q4 -2 10.5 -4t12.5 -2q35 -12 31 -48q-2 -47 -5.5 -93t-3.5 -93q-2 -41 -7 -81t-15 -79q-4 -12 -9 -23.5t-9 -21.5q-12 -27 -43 -26q-61 0 -101 45 q-14 18 -14 37z" />
<glyph unicode="&#xb7;" />
<glyph unicode="&#xbc;" horiz-adv-x="1124" d="M45 -2q27 45 50.5 85t47.5 77q106 178 227.5 342t264.5 311q43 45 81 93t75 98q37 47 72.5 94t70.5 94q16 27 47 16q41 -16 53.5 -51t-16.5 -72q-41 -49 -78 -101t-76 -103q-55 -68 -111.5 -134.5t-113.5 -134.5q-47 -53 -93 -107t-89 -112q-53 -74 -104.5 -148.5 t-94.5 -156.5l-74 -117q-20 -33 -38.5 -38t-49.5 16q-14 10 -26.5 23.5t-24.5 25.5zM316 1107q1 29 1 60q59 6 86 -16.5t31 -69.5q4 -68 6 -135t4 -135q4 -29 -14 -47q-12 -10 -26.5 -6t-26.5 14q-45 29 -51 80q-4 49 -5.5 98t-3.5 99q-2 29 -1 58zM692 285q55 117 121 241 q2 6 5 11.5t5 9.5q25 49 76 41q27 -4 46.5 -22.5t23.5 -45.5q4 -45 6 -89t4 -89q0 -23 4 -39t33 -22q16 -4 20 -19q6 -8 10.5 -17t0.5 -18q-2 -8 -11.5 -13t-17.5 -9t-17.5 -3t-21.5 -1v-82q0 -29 2 -57.5t2 -57.5q0 -14 -4 -28.5t-21 -18.5q-31 -8 -59 16q-14 14 -18 29.5 t-4 34.5q0 39 -2.5 79t-2.5 85q-29 -4 -56.5 -4t-52 7t-43 25.5t-28.5 55.5zM819 287h51v78h-8q-10 -18 -21.5 -37t-21.5 -41z" />
<glyph unicode="&#xbd;" horiz-adv-x="1159" d="M60.5 -10.5q7.5 14.5 17.5 26.5q27 39 53.5 77t52.5 75q39 55 77 109.5t79 107.5l295 381q31 43 61.5 87t59.5 87q18 29 36.5 56.5t38.5 54.5q4 8 13.5 10t13.5 4q39 -4 56.5 -16.5t23.5 -40.5q4 -10 3 -20.5t-5 -16.5q-59 -82 -116.5 -164t-119.5 -164 q-29 -41 -58.5 -79t-59.5 -77q-35 -47 -71 -92t-71 -92q-27 -37 -51 -76t-49 -75q-39 -55 -77 -110.5t-77 -113.5q-14 -23 -45 -22q-29 4 -46 19.5t-32 37.5q-10 12 -2.5 26.5zM213 1012q0 23 7 31t30 10q6 2 15 2h18q66 -2 67 -68q4 -33 3 -65.5t-1 -65.5h-4q0 -31 2 -61.5 t6 -61.5q2 -23 -8 -37t-24 -24q-16 -10 -30.5 -7t-31.5 13q-47 29 -45 80q0 63 -1 126.5t-3 127.5zM711 79q2 15 22 34q57 53 76 125q4 16 6 30.5t-14 30.5q-4 -2 -10.5 -3t-10.5 -5q-20 -12 -36.5 -7t-32.5 15q-74 55 10 98q33 16 61.5 18.5t53 -7t44 -28t33.5 -40.5 q59 -94 9 -186q-4 -6 -7.5 -13.5t-9.5 -21.5q33 -4 59.5 -7t55.5 -8q23 -2 42 -10t32 -31q10 -20 5 -36.5t-28 -26.5q-16 -4 -33.5 -8t-33.5 0q-49 10 -98.5 14t-100.5 -2q-51 -8 -80 37q-16 23 -14 38z" />
<glyph unicode="&#xc4;" d="M123 74q6 70 11 138.5t9 137.5q4 53 8.5 89t8.5 89q0 6 1 20.5t2 31t3 30t2 19.5q4 14 6 16t2 17q18 119 29.5 188.5t21 114.5t15.5 74.5t16 66.5q4 16 7 29.5t7 29.5q10 41 52 54q53 16 102 8t90 -47q27 -25 31 -64q10 -59 19 -117.5t16 -117.5q4 -43 5 -86t-1 -86 q0 -55 5 -107.5t15 -105.5q10 -59 15.5 -121t11.5 -121q2 -20 4 -39.5t6 -38.5q4 -20 15 -33.5t34 -19.5q55 -14 51 -66q-2 -23 -18 -40t-43 -23q-68 -16 -103.5 2t-68.5 80q-35 61 -42 125.5t-13 130.5q-2 12 -4 22.5t-5 22.5q-31 -2 -61.5 -3t-62.5 -5q-4 -12 -5.5 -24.5 t-3.5 -22.5q-4 -72 -5 -142.5t-5 -142.5q-4 -41 -18.5 -56.5t-55.5 -19.5q-72 -4 -92 18.5t-14 94.5zM201 1364v2v2q0 51 37 78q23 16 49 6q6 -4 21.5 -12t15.5 -31v-2q0 -2 -1 -3t-1 -5q0 -12 -0.5 -24.5t-4.5 -24.5q-6 -37 -32 -43q-20 -12 -52 12q-16 14 -24 33 q-2 4 -6 8zM331 602q-5 -72 1 -108q12 0 24.5 -1t22.5 1q12 2 23.5 3t27.5 3q-2 20 -3 36.5t-3 32.5q-2 25 0 47.5t-2 49.5q2 39 3 83t-1 89t-8 85t-19 70q-12 -27 -25.5 -94.5t-24.5 -146t-16 -150.5zM434 1374q0 29 27 56q27 25 59 24q25 -4 40 -23.5t15 -50.5v-16 q-4 -16 -7 -26.5t-11 -18.5q-14 -12 -45 -12h-2l-4 2q-2 2 -10 6q-10 4 -23.5 10t-26.5 14q-8 6 -10 16.5t-2 18.5z" />
<glyph unicode="&#xc8;" horiz-adv-x="643" d="M161 1423q-9 27 3 68q4 23 11 28t24 1q39 -10 78.5 -23.5t80.5 -26.5q23 -8 49.5 -15t53.5 -19q16 -8 32.5 -16.5t34.5 -12.5q20 -8 33.5 -33.5t7.5 -60.5q-2 -12 -12 -23.5t-25 -11.5q-14 0 -18 2q-43 16 -83 32.5t-87 30.5q-23 10 -48.5 17.5t-49.5 17.5q-20 4 -45 8 q-31 10 -40 37zM162 82q4 180 6 356t6 357q2 57 7 113.5t9 111.5q2 20 2.5 38.5t0.5 37.5q0 47 15 69.5t58 32.5q47 10 94.5 15.5t94.5 11.5q39 6 58 -18.5t38 -47.5q4 -4 -2 -22.5t-17 -22.5q-18 -10 -39.5 -16t-43.5 -13q-18 -6 -38 -12t-40 -10q-6 -106 -19.5 -206.5 t0.5 -203.5q14 0 26.5 -1t24.5 -1q29 4 50.5 -8t40.5 -29q25 -23 20.5 -44t-35.5 -33q-14 -6 -29.5 -7.5t-31.5 -3.5q-16 -4 -33.5 -7t-36.5 -7q-4 -104 -7 -205.5t-7 -208.5q31 -4 61.5 -3t58 -5t50 -24.5t35.5 -61.5q-20 -6 -41 -11t-43 -9q-37 -6 -74 -11.5t-74 -1.5 q-31 4 -59.5 16.5t-54.5 28.5q-16 10 -23.5 26.5t-7.5 39.5z" />
<glyph unicode="&#xc9;" horiz-adv-x="643" d="M147 1348q-16 35 11 45q37 16 74.5 30.5t78.5 30.5q23 10 48.5 20.5t54.5 16.5q18 4 36.5 7t34.5 13q20 6 47 -6t43 -41q6 -10 5.5 -25.5t-11.5 -25.5q-12 -8 -16 -8q-43 -16 -85 -28.5t-87 -28.5q-23 -6 -48.5 -16.5t-49.5 -20.5q-20 -8 -41 -21q-29 -12 -53.5 3.5 t-41.5 54.5zM162 82q4 180 6 356t6 357q2 57 7 113.5t9 111.5q2 20 2.5 38.5t0.5 37.5q0 47 15 69.5t58 32.5q47 10 94.5 15.5t94.5 11.5q39 6 58 -18.5t38 -47.5q4 -4 -2 -22.5t-17 -22.5q-18 -10 -39.5 -16t-43.5 -13q-18 -6 -38 -12t-40 -10q-6 -106 -19.5 -206.5 t0.5 -203.5q14 0 26.5 -1t24.5 -1q29 4 50.5 -8t40.5 -29q25 -23 20.5 -44t-35.5 -33q-14 -6 -29.5 -7.5t-31.5 -3.5q-16 -4 -33.5 -7t-36.5 -7q-4 -104 -7 -205.5t-7 -208.5q31 -4 61.5 -3t58 -5t50 -24.5t35.5 -61.5q-20 -6 -41 -11t-43 -9q-37 -6 -74 -11.5t-74 -1.5 q-31 4 -59.5 16.5t-54.5 28.5q-16 10 -23.5 26.5t-7.5 39.5z" />
<glyph unicode="&#xca;" horiz-adv-x="643" d="M68 1346.5q0 9.5 16 25.5l102 101q23 20 61 25t64 -13q14 -10 4 -32.5t-20 -29.5q-31 -35 -56.5 -64.5t-50 -47t-49 -16.5t-55.5 26q-16 16 -16 25.5zM162 82q4 180 6 356t6 357q2 57 7 113.5t9 111.5q2 20 2.5 38.5t0.5 37.5q0 47 15 69.5t58 32.5q47 10 94.5 15.5 t94.5 11.5q39 6 58 -18.5t38 -47.5q4 -4 -2 -22.5t-17 -22.5q-18 -10 -39.5 -16t-43.5 -13q-18 -6 -38 -12t-40 -10q-6 -106 -19.5 -206.5t0.5 -203.5q14 0 26.5 -1t24.5 -1q29 4 50.5 -8t40.5 -29q25 -23 20.5 -44t-35.5 -33q-14 -6 -29.5 -7.5t-31.5 -3.5q-16 -4 -33.5 -7 t-36.5 -7q-4 -104 -7 -205.5t-7 -208.5q31 -4 61.5 -3t58 -5t50 -24.5t35.5 -61.5q-20 -6 -41 -11t-43 -9q-37 -6 -74 -11.5t-74 -1.5q-31 4 -59.5 16.5t-54.5 28.5q-16 10 -23.5 26.5t-7.5 39.5zM367 1477q2 8 10 12t18.5 4t20.5 -3t14 -7q43 -16 81 -29.5t62.5 -30 t32.5 -39t-4 -59.5q-8 -23 -16 -27t-31 7l-131 59q-27 14 -46.5 48t-10.5 65z" />
<glyph unicode="&#xcb;" horiz-adv-x="700" d="M162 82q4 180 6 356t6 357q2 57 7 113.5t9 111.5q2 20 2.5 38.5t0.5 37.5q0 47 15 69.5t58 32.5q47 10 94.5 15.5t94.5 11.5q39 6 58 -18.5t38 -47.5q4 -4 -2 -22.5t-17 -22.5q-18 -10 -39.5 -16t-43.5 -13q-18 -6 -38 -12t-40 -10q-6 -106 -19.5 -206.5t0.5 -203.5 q14 0 26.5 -1t24.5 -1q29 4 50.5 -8t40.5 -29q25 -23 20.5 -44t-35.5 -33q-14 -6 -29.5 -7.5t-31.5 -3.5q-16 -4 -33.5 -7t-36.5 -7q-4 -104 -7 -205.5t-7 -208.5q31 -4 61.5 -3t58 -5t50 -24.5t35.5 -61.5q-20 -6 -41 -11t-43 -9q-37 -6 -74 -11.5t-74 -1.5 q-31 4 -59.5 16.5t-54.5 28.5q-16 10 -23.5 26.5t-7.5 39.5zM178 1364v2v2q0 51 37 78q23 16 49 6q6 -4 20.5 -12t14.5 -31v-2v-8v-24.5t-4 -24.5q-6 -37 -33 -43q-20 -12 -51 12q-10 8 -16.5 16t-10.5 17q0 4 -4 8zM412 1374q0 29 26 56q25 25 58 24q25 -4 41 -23.5 t16 -50.5v-16q-4 -16 -7 -26.5t-11 -18.5q-14 -12 -48 -12l-4 2l-6 3l-6 3q-10 4 -22.5 10t-24.5 14q-8 6 -10 16.5t-2 18.5z" />
<glyph unicode="&#xcc;" horiz-adv-x="579" d="M178 1503q2 8 10.5 12.5t18.5 4.5t20.5 -3.5t14.5 -7.5q43 -16 80.5 -29.5t62.5 -29.5t33 -38.5t-4 -59.5q-8 -23 -16.5 -27t-30.5 6l-131 60q-27 14 -46.5 48t-11.5 64zM199 1153q-10 43 2 60.5t55 23.5q16 4 33.5 3t34.5 -5q31 -6 38 -20.5t11 -49.5l20 -432 q4 -129 7 -258t8 -260q2 -41 3 -81t5 -81q6 -80 -76 -80q-12 0 -22.5 -1t-20.5 3q-59 14 -61 74q-10 266 -16.5 526.5t-14.5 522.5q0 6 -2 27.5t-4 27.5z" />
<glyph unicode="&#xcd;" horiz-adv-x="579" d="M169 1365q1 9 6 18.5t12.5 15.5t13.5 8q37 31 65.5 57.5t55 40t50 10t50.5 -33.5q16 -16 14 -25.5t-20 -25.5l-115 -84q-25 -16 -64.5 -17.5t-62.5 21.5q-6 6 -5 15zM199 1153q-10 43 2 60.5t55 23.5q16 4 33.5 3t34.5 -5q31 -6 38 -20.5t11 -49.5l20 -432q4 -129 7 -258 t8 -260q2 -41 3 -81t5 -81q6 -80 -76 -80q-12 0 -22.5 -1t-20.5 3q-59 14 -61 74q-10 266 -16.5 526.5t-14.5 522.5q0 6 -2 27.5t-4 27.5z" />
<glyph unicode="&#xce;" horiz-adv-x="602" d="M29 1366.5q0 9.5 16 26.5l102 100q23 20 61 25.5t64 -13.5q14 -10 4 -32.5t-20 -28.5q-31 -35 -56.5 -64.5t-50 -47t-49 -16.5t-55.5 25q-16 16 -16 25.5zM205 1153q-10 43 2 60.5t55 23.5q16 4 33.5 3t34.5 -5q31 -6 38 -20.5t11 -49.5l20 -432q4 -129 7.5 -258 t7.5 -260q2 -41 3 -81t5 -81q6 -80 -76 -80q-12 0 -22.5 -1t-20.5 3q-59 14 -61 74q-10 266 -16.5 526.5t-14.5 522.5q0 6 -2 27.5t-4 27.5zM317 1497q2 8 10.5 12t18.5 4t20.5 -3t14.5 -7q43 -16 81 -29.5t62.5 -30t32.5 -39t-4 -58.5q-8 -23 -16.5 -27t-30.5 6l-131 59 q-27 14 -46.5 48t-11.5 65z" />
<glyph unicode="&#xcf;" horiz-adv-x="579" d="M98 1364v2v2q0 51 37 78q23 16 49 6q6 -4 20.5 -12t14.5 -31v-2v-8v-24.5t-4 -24.5q-6 -37 -33 -43q-20 -12 -51 12q-10 8 -16 16t-11 17q0 4 -4 8zM199 1153q-10 43 2 60.5t55 23.5q16 4 33.5 3t34.5 -5q31 -6 38 -20.5t11 -49.5l20 -432q4 -129 7 -258t8 -260 q2 -41 3 -81t5 -81q6 -80 -76 -80q-12 0 -22.5 -1t-20.5 3q-59 14 -61 74q-10 266 -16.5 526.5t-14.5 522.5q0 6 -2 27.5t-4 27.5zM332 1374q0 29 26 56q25 25 58 24q25 -4 41 -23.5t16 -50.5v-16q-4 -16 -7 -26.5t-11 -18.5q-14 -12 -47 -12l-5 2l-6 3l-6 3q-10 4 -22.5 10 t-24.5 14q-8 6 -10 16.5t-2 18.5z" />
<glyph unicode="&#xd2;" horiz-adv-x="1024" />
<glyph unicode="&#xd6;" horiz-adv-x="937" d="M211 465q-27 262 35 526q10 37 37.5 96.5t62.5 104.5q8 2 2 -1t-2 1q37 33 83 36t89 -16.5t77 -55.5t44 -79q35 -133 60.5 -262t19.5 -248q4 -123 -7.5 -229.5t-56.5 -204.5q-10 -23 -21 -44t-24 -42q-49 -76 -139 -53q-80 18 -133 68.5t-76 130.5q-18 66 -30.5 134 t-20.5 138zM260 1364v2v2q0 51 37 78q23 16 49 6q6 -4 20.5 -12t14.5 -31v-2v-8v-24.5t-4 -24.5q-6 -37 -33 -43q-20 -12 -51 12q-10 8 -16.5 16t-10.5 17q0 4 -4 8zM370 618.5q1 -100.5 12 -191.5t32.5 -165t54.5 -110q18 -6 28.5 22.5t20.5 61.5q23 61 31 122.5t8 125 t-5 127t-9 124.5q-4 63 -9.5 126t-19.5 124q-2 12 -6 29.5t-10 33t-14.5 26.5t-18.5 11q-33 -37 -54.5 -110.5t-31.5 -164.5t-9 -191.5zM494 1374q0 29 26 56q25 25 58 24q25 -4 41 -23.5t16 -50.5v-16q-4 -16 -7 -26.5t-12 -18.5q-14 -12 -47 -12l-4 2l-6 3l-6 3 q-10 4 -22.5 10t-24.5 14q-8 6 -10 16.5t-2 18.5z" />
<glyph unicode="&#xd7;" d="M85 162q1 14 26 43q27 29 50 59.5t50 59.5q23 27 44 50l42 46q10 10 18.5 21.5t20.5 27.5q-31 33 -58.5 64.5t-56.5 60.5q-16 16 -28.5 30.5t-26.5 28.5q-4 8 -9 14.5t-10 16.5q-10 18 -10 38.5t10 29.5q18 10 34 4t30 -17q29 -20 45 -41q37 -41 74 -78.5t76 -78.5 q12 10 21 20t19 21q31 35 62 70.5t59 72.5q25 27 51 8q16 -10 32 -30.5t26 -49.5q-43 -51 -87 -105t-89 -110q4 -8 16 -24q92 -111 178 -221q12 -16 23.5 -29.5t21.5 -28.5q20 -37 -14 -65q-18 -12 -31.5 -12.5t-29.5 18.5q-31 33 -58.5 66.5t-56.5 66.5q-27 35 -52.5 66.5 t-50.5 64.5q-4 6 -9 9t-15 11q-43 -47 -84 -94t-82 -92q-12 -16 -24.5 -33.5t-26.5 -34.5q-61 -72 -105 7q-16 35 -15 49z" />
<glyph unicode="&#xdc;" horiz-adv-x="946" d="M186 1067q4 31 2 61.5t0 61.5q2 35 13.5 44t46.5 9q33 0 55 -8q35 -12 45 -25.5t10 -50.5q0 -49 -1 -98t-3 -98q-4 -123 -1 -241t20 -241q8 -57 13 -113.5t11 -115.5q4 -27 7.5 -47.5t9.5 -24.5q35 29 52 68t23 76q8 51 12.5 101t10.5 103q10 86 21.5 172t19.5 177 q6 41 3 89t-3 87q4 35 5 68.5t5 70.5q4 10 10.5 19.5t14.5 13.5q27 12 54.5 9t50 -16.5t36.5 -37t12 -54.5q-10 -135 -14 -271t-2 -271q4 -80 3 -161t22 -159q12 -41 31.5 -75.5t60.5 -55.5q16 -10 33.5 -22.5t9.5 -40.5q-8 -23 -33 -38.5t-55 -11.5q-47 4 -82 28t-64 56 q-12 12 -23.5 28t-25.5 32l-33 -66q-10 -14 -18 -27.5t-19 -25.5q-27 -39 -55 -54.5t-58 -12t-58.5 21.5t-53.5 43q-35 37 -51 84t-23 98q-8 49 -12 100.5t-10 102.5q-41 319 -25 639zM260 1364v2v2q0 51 37 78q23 16 49 6q6 -4 20.5 -12t14.5 -31v-2v-8v-24.5t-4 -24.5 q-6 -37 -33 -43q-20 -12 -51 12q-10 8 -16.5 16t-10.5 17q0 4 -4 8zM494 1374q0 29 26 56q25 25 58 24q25 -4 41 -23.5t16 -50.5v-16q-4 -16 -7 -26.5t-12 -18.5q-14 -12 -47 -12l-4 2l-6 3l-6 3q-10 4 -22.5 10t-24.5 14q-8 6 -10 16.5t-2 18.5z" />
<glyph unicode="&#xdf;" d="M121 539q-25 260 24 530q8 59 52 102q37 41 98 54q20 4 39.5 6t38.5 2q109 0 198 -76q57 -47 78 -108q18 -53 2 -129q-12 -74 -35.5 -131.5t-56.5 -104.5q-6 0 -6 -8q4 -4 10 -6t10 -6q18 -12 36 -23.5t34 -28.5q113 -90 115 -264v-36.5t-2 -30.5q-18 -125 -129 -187 q-82 -45 -152 -57h-24q-37 0 -68 8h-2q-16 4 -28.5 14.5t-16.5 16.5q-27 33 -17 59q10 31 54 41q8 2 14 4t14 2q14 4 26.5 6t27.5 7q37 8 60.5 18t37.5 27.5t21.5 46t11.5 73.5q6 53 -27 119q-23 41 -42 54.5t-38 17.5q-35 6 -67 24q-16 8 -36 18.5t-36 24.5t-20.5 27.5 t-4.5 22.5q2 10 8.5 23.5t26.5 25.5q96 59 123 194q2 4 2 17q4 20 8 40.5t6 43.5q0 27 -22 53q-25 31 -59 31h-5q-82 0 -98 -76q-20 -106 -24 -207q-6 -74 -2 -149.5t10 -149.5q2 -33 3 -63.5t3 -61.5q4 -63 6 -125.5t6 -122.5q0 -53 2 -103t6 -104q0 -18 1 -37.5t3 -35.5 t3.5 -29.5t1.5 -30.5q4 -35 -17 -51q-16 -18 -45 -18h-11t-13 2q-35 12 -54 28q-18 23 -24 60q-18 160 -13 307q2 14 1 27.5t-1 27.5q-2 8 -3 15.5t-1 17.5q0 16 -1 32.5t-1 33.5q-2 31 -3 60.5t-3 59.5q-2 27 -4 53.5t-4 53.5q-2 8 -3 14t-3 15z" />
<glyph unicode="&#xe4;" d="M123 74q6 70 11 138.5t9 137.5q4 53 8.5 89t8.5 89q0 6 1 20.5t2 31t3 30t2 19.5q4 14 6 16t2 17q18 119 29.5 188.5t21 114.5t15.5 74.5t16 66.5q4 16 7 29.5t7 29.5q10 41 52 54q53 16 102 8t90 -47q27 -25 31 -64q10 -59 19 -117.5t16 -117.5q4 -43 5 -86t-1 -86 q0 -55 5 -107.5t15 -105.5q10 -59 15.5 -121t11.5 -121q2 -20 4 -39.5t6 -38.5q4 -20 15 -33.5t34 -19.5q55 -14 51 -66q-2 -23 -18 -40t-43 -23q-68 -16 -103.5 2t-68.5 80q-35 61 -42 125.5t-13 130.5q-2 12 -4 22.5t-5 22.5q-31 -2 -61.5 -3t-62.5 -5q-4 -12 -5.5 -24.5 t-3.5 -22.5q-4 -72 -5 -142.5t-5 -142.5q-4 -41 -18.5 -56.5t-55.5 -19.5q-72 -4 -92 18.5t-14 94.5zM201 1364v2v2q0 51 37 78q23 16 49 6q6 -4 21.5 -12t15.5 -31v-2q0 -2 -1 -3t-1 -5q0 -12 -0.5 -24.5t-4.5 -24.5q-6 -37 -32 -43q-20 -12 -52 12q-16 14 -24 33 q-2 4 -6 8zM331 602q-5 -72 1 -108q12 0 24.5 -1t22.5 1q12 2 23.5 3t27.5 3q-2 20 -3 36.5t-3 32.5q-2 25 0 47.5t-2 49.5q2 39 3 83t-1 89t-8 85t-19 70q-12 -27 -25.5 -94.5t-24.5 -146t-16 -150.5zM434 1374q0 29 27 56q27 25 59 24q25 -4 40 -23.5t15 -50.5v-16 q-4 -16 -7 -26.5t-11 -18.5q-14 -12 -45 -12h-2l-4 2q-2 2 -10 6q-10 4 -23.5 10t-26.5 14q-8 6 -10 16.5t-2 18.5z" />
<glyph unicode="&#xe8;" horiz-adv-x="532" d="M57 245q-6 68 35 138q74 143 232 121q49 -8 77.5 -52t42.5 -92q4 -16 -1 -36.5t-16 -40t-28.5 -36t-36.5 -24.5q-37 -20 -71 -28q-18 -4 -38.5 -2t-51.5 2q10 -25 15 -43.5t15 -34.5q23 -41 45.5 -47.5t65.5 10.5q16 6 32.5 11t33.5 9q14 8 24 4q16 -6 35.5 -10t19.5 -26 q0 -16 -9 -32t-21 -26q-20 -12 -44 -18t-46 -12q-88 -20 -160 13.5t-111 115.5q-33 68 -39 136zM104 815q2 8 10.5 12t18.5 4t20.5 -3t14.5 -7q43 -16 94 -36.5t93 -45t64.5 -55.5t10.5 -68q-8 -23 -16 -26.5t-31 6.5l-221 106q-27 14 -46.5 48t-11.5 65zM217 287 q63 16 80 44t-12 75q-43 -23 -58.5 -50.5t-9.5 -68.5z" />
<glyph unicode="&#xe9;" horiz-adv-x="532" d="M57 245q-6 68 35 138q74 143 232 121q49 -8 77.5 -52t42.5 -92q4 -16 -1 -36.5t-16 -40t-28.5 -36t-36.5 -24.5q-37 -20 -71 -28q-18 -4 -38.5 -2t-51.5 2q10 -25 15 -43.5t15 -34.5q23 -41 45.5 -47.5t65.5 10.5q16 6 32.5 11t33.5 9q14 8 24 4q16 -6 35.5 -10t19.5 -26 q0 -16 -9 -32t-21 -26q-20 -12 -44 -18t-46 -12q-88 -20 -160 13.5t-111 115.5q-33 68 -39 136zM89 625.5q1 9.5 6 17.5t12.5 15.5t11.5 9.5q37 31 80 65.5t85 58t79.5 29.5t64.5 -22q14 -18 13 -27.5t-21 -26.5l-201 -141q-23 -16 -62.5 -16t-62.5 22q-6 6 -5 15.5z M217 287q63 16 80 44t-12 75q-43 -23 -58.5 -50.5t-9.5 -68.5z" />
<glyph unicode="&#xeb;" horiz-adv-x="700" d="M162 82q4 180 6 356t6 357q2 57 7 113.5t9 111.5q2 20 2.5 38.5t0.5 37.5q0 47 15 69.5t58 32.5q47 10 94.5 15.5t94.5 11.5q39 6 58 -18.5t38 -47.5q4 -4 -2 -22.5t-17 -22.5q-18 -10 -39.5 -16t-43.5 -13q-18 -6 -38 -12t-40 -10q-6 -106 -19.5 -206.5t0.5 -203.5 q14 0 26.5 -1t24.5 -1q29 4 50.5 -8t40.5 -29q25 -23 20.5 -44t-35.5 -33q-14 -6 -29.5 -7.5t-31.5 -3.5q-16 -4 -33.5 -7t-36.5 -7q-4 -104 -7 -205.5t-7 -208.5q31 -4 61.5 -3t58 -5t50 -24.5t35.5 -61.5q-20 -6 -41 -11t-43 -9q-37 -6 -74 -11.5t-74 -1.5 q-31 4 -59.5 16.5t-54.5 28.5q-16 10 -23.5 26.5t-7.5 39.5zM178 1364v2v2q0 51 37 78q23 16 49 6q6 -4 20.5 -12t14.5 -31v-2v-8v-24.5t-4 -24.5q-6 -37 -33 -43q-20 -12 -51 12q-10 8 -16.5 16t-10.5 17q0 4 -4 8zM412 1374q0 29 26 56q25 25 58 24q25 -4 41 -23.5 t16 -50.5v-16q-4 -16 -7 -26.5t-11 -18.5q-14 -12 -48 -12l-4 2l-6 3l-6 3q-10 4 -22.5 10t-24.5 14q-8 6 -10 16.5t-2 18.5z" />
<glyph unicode="&#xf6;" d="M178 465q-27 262 35 526q10 37 38 96.5t62 104.5q8 2 2 -1t-2 1q37 33 83 36t89 -16.5t77 -55.5t44 -79q35 -133 60.5 -262t19.5 -248q4 -123 -7 -229.5t-56 -204.5q-10 -23 -21.5 -44t-23.5 -42q-49 -76 -140 -53q-80 18 -133 68.5t-76 130.5q-18 66 -30.5 134 t-20.5 138zM227 1364v2v2q0 51 37 78q23 16 49 6q6 -4 20.5 -12t14.5 -31v-2v-8v-24.5t-4 -24.5q-6 -37 -33 -43q-20 -12 -51 12q-10 8 -16 16t-11 17q0 4 -4 8zM337 618.5q1 -100.5 12 -191.5t32.5 -165t54.5 -110q18 -6 28.5 22.5t20.5 61.5q23 61 31 122.5t8 125t-5 127 t-9 124.5q-4 63 -9 126t-20 124q-2 12 -6 29.5t-10 33t-14.5 26.5t-18.5 11q-33 -37 -54.5 -110.5t-31.5 -164.5t-9 -191.5zM461 1374q0 29 26 56q25 25 58 24q25 -4 41 -23.5t16 -50.5v-16q-4 -16 -7 -26.5t-11 -18.5q-14 -12 -47 -12l-5 2l-6 3l-6 3q-10 4 -22.5 10 t-24.5 14q-8 6 -10 16.5t-2 18.5z" />
<glyph unicode="&#xf7;" horiz-adv-x="1085" d="M86 618q-6 12 3 24.5t26 16.5q10 4 21 4.5t24 2.5q35 2 68.5 2h68.5q51 4 102.5 5t104.5 5q51 4 101 7t104 7q53 2 107 3t108 1q18 0 36.5 -5t34.5 -13q41 -14 31 -60q-8 -27 -19.5 -38t-35.5 -11h-187q-41 -2 -96 -1t-115 -15q-16 -4 -35.5 -2t-37.5 2q-25 0 -49.5 3 t-49.5 -1q-43 -2 -85 -8t-85 -10q-37 0 -73 6q-31 4 -45.5 27.5t-26.5 47.5zM479 317q-2 18 13.5 29.5t44.5 11.5q47 -4 73 -41q10 -14 8 -27.5t-10 -27.5q-16 -29 -49 -26q-27 4 -52.5 29.5t-27.5 51.5zM486.5 931.5q-7.5 14.5 9.5 31.5q10 12 34.5 15t40.5 -7 q10 -6 20.5 -12.5t18.5 -14.5q6 -6 9.5 -14t5.5 -10q-4 -47 -31 -63.5t-55 7.5q-10 10 -19.5 18.5t-15.5 18.5q-10 16 -17.5 30.5z" />
<glyph unicode="&#xfc;" horiz-adv-x="946" d="M186 1067q4 31 2 61.5t0 61.5q2 35 13.5 44t46.5 9q33 0 55 -8q35 -12 45 -25.5t10 -50.5q0 -49 -1 -98t-3 -98q-4 -123 -1 -241t20 -241q8 -57 13 -113.5t11 -115.5q4 -27 7.5 -47.5t9.5 -24.5q35 29 52 68t23 76q8 51 12.5 101t10.5 103q10 86 21.5 172t19.5 177 q6 41 3 89t-3 87q4 35 5 68.5t5 70.5q4 10 10.5 19.5t14.5 13.5q27 12 54.5 9t50 -16.5t36.5 -37t12 -54.5q-10 -135 -14 -271t-2 -271q4 -80 3 -161t22 -159q12 -41 31.5 -75.5t60.5 -55.5q16 -10 33.5 -22.5t9.5 -40.5q-8 -23 -33 -38.5t-55 -11.5q-47 4 -82 28t-64 56 q-12 12 -23.5 28t-25.5 32l-33 -66q-10 -14 -18 -27.5t-19 -25.5q-27 -39 -55 -54.5t-58 -12t-58.5 21.5t-53.5 43q-35 37 -51 84t-23 98q-8 49 -12 100.5t-10 102.5q-41 319 -25 639zM260 1364v2v2q0 51 37 78q23 16 49 6q6 -4 20.5 -12t14.5 -31v-2v-8v-24.5t-4 -24.5 q-6 -37 -33 -43q-20 -12 -51 12q-10 8 -16.5 16t-10.5 17q0 4 -4 8zM494 1374q0 29 26 56q25 25 58 24q25 -4 41 -23.5t16 -50.5v-16q-4 -16 -7 -26.5t-12 -18.5q-14 -12 -47 -12l-4 2l-6 3l-6 3q-10 4 -22.5 10t-24.5 14q-8 6 -10 16.5t-2 18.5z" />
<glyph unicode="&#x2000;" horiz-adv-x="760" />
<glyph unicode="&#x2001;" horiz-adv-x="1521" />
<glyph unicode="&#x2002;" horiz-adv-x="760" />
<glyph unicode="&#x2003;" horiz-adv-x="1521" />
<glyph unicode="&#x2004;" horiz-adv-x="507" />
<glyph unicode="&#x2005;" horiz-adv-x="380" />
<glyph unicode="&#x2006;" horiz-adv-x="253" />
<glyph unicode="&#x2007;" horiz-adv-x="253" />
<glyph unicode="&#x2008;" horiz-adv-x="190" />
<glyph unicode="&#x2009;" horiz-adv-x="304" />
<glyph unicode="&#x200a;" horiz-adv-x="84" />
<glyph unicode="&#x2010;" d="M133 537q-4 23 2 29.5t27 8.5q53 4 105 8.5t106 8.5q35 2 69.5 3t69.5 3v-4q47 0 96 6q29 2 56.5 -17.5t35.5 -47.5q4 -12 -4 -26.5t-24 -21.5q-12 -4 -21 -4q-57 -4 -114.5 -4t-114.5 -2q-33 -2 -66.5 -4t-68.5 -6q-16 -2 -29.5 -3t-30.5 -3q-41 -4 -65.5 15.5 t-28.5 60.5z" />
<glyph unicode="&#x2011;" d="M133 537q-4 23 2 29.5t27 8.5q53 4 105 8.5t106 8.5q35 2 69.5 3t69.5 3v-4q47 0 96 6q29 2 56.5 -17.5t35.5 -47.5q4 -12 -4 -26.5t-24 -21.5q-12 -4 -21 -4q-57 -4 -114.5 -4t-114.5 -2q-33 -2 -66.5 -4t-68.5 -6q-16 -2 -29.5 -3t-30.5 -3q-41 -4 -65.5 15.5 t-28.5 60.5z" />
<glyph unicode="&#x2012;" d="M133 537q-4 23 2 29.5t27 8.5q53 4 105 8.5t106 8.5q35 2 69.5 3t69.5 3v-4q47 0 96 6q29 2 56.5 -17.5t35.5 -47.5q4 -12 -4 -26.5t-24 -21.5q-12 -4 -21 -4q-57 -4 -114.5 -4t-114.5 -2q-33 -2 -66.5 -4t-68.5 -6q-16 -2 -29.5 -3t-30.5 -3q-41 -4 -65.5 15.5 t-28.5 60.5z" />
<glyph unicode="&#x2013;" d="M133 537q-4 23 2 29.5t27 8.5q53 4 105 8.5t106 8.5q35 2 69.5 3t69.5 3v-4q47 0 96 6q29 2 56.5 -17.5t35.5 -47.5q4 -12 -4 -26.5t-24 -21.5q-12 -4 -21 -4q-57 -4 -114.5 -4t-114.5 -2q-33 -2 -66.5 -4t-68.5 -6q-16 -2 -29.5 -3t-30.5 -3q-41 -4 -65.5 15.5 t-28.5 60.5z" />
<glyph unicode="&#x2014;" horiz-adv-x="1075" d="M37 545q-6 39 4 50t43 5q8 -2 16.5 -1t18.5 1q135 8 270 18.5t270 16.5q76 4 152 1t152 -7q33 0 57 -29q23 -33 13.5 -57.5t-46.5 -30.5q-27 -4 -54.5 -2t-53.5 2q-59 4 -120 4t-122 -6q-59 -4 -118.5 -7t-121.5 -7q-72 -4 -142.5 -9.5t-143.5 -9.5q-29 -2 -49.5 15.5 t-24.5 52.5z" />
<glyph unicode="&#x2018;" d="M307 969q4 59 8 116.5t9 114.5q4 23 14 30t39 5q45 -4 45 -41q0 -20 -3 -38.5t-5 -37.5q-2 -37 -5.5 -74.5t-5.5 -72.5q78 -49 99 -127q6 -20 2 -39t-23 -31q-33 -27 -71 -10q-29 14 -47.5 31.5t-30.5 46.5q-12 31 -19.5 62.5t-5.5 64.5z" />
<glyph unicode="&#x2019;" d="M291 834q0 39 15.5 78.5t68.5 60.5q4 2 6 4t6 4q2 16 2 34.5t2 37.5q4 35 5 70.5t3 70.5q4 23 13.5 29t31.5 0q4 -2 10.5 -4t12.5 -2q35 -12 31 -48q-2 -47 -5.5 -93t-3.5 -93q-2 -41 -7 -81t-15 -79q-4 -12 -9 -23.5t-9 -21.5q-12 -27 -43 -26q-61 0 -101 45 q-14 18 -14 37z" />
<glyph unicode="&#x201a;" d="M328 -209q4 18 12 36.5t12 37.5q10 35 22.5 69.5t22.5 69.5q-33 35 -49 70t-18 78q-2 18 5 35.5t30 25.5q39 18 73 -4q23 -20 37 -43t21 -53q12 -70 -4 -127t-34 -112.5t-36 -111.5q-8 -23 -18.5 -26.5t-38.5 6.5q-20 4 -30.5 17.5t-6.5 31.5z" />
<glyph unicode="&#x201c;" horiz-adv-x="700" d="M102 969q4 59 8.5 116.5t8.5 114.5q4 23 14 30t39 5q45 -4 45 -41q0 -20 -3 -38.5t-5 -37.5q-2 -37 -5 -74.5t-5 -72.5q78 -49 98 -127q6 -20 2 -39t-23 -31q-33 -27 -71 -10q-29 14 -47.5 31.5t-30.5 46.5q-12 31 -19.5 62.5t-5.5 64.5zM409 923q-1 38 3 78 q8 111 37 232q16 0 31.5 1t31.5 3q39 -33 25 -86q-12 -45 -19.5 -92t-5.5 -94q12 -4 23 -9q18 -8 33.5 -24.5t23.5 -37t9 -43t-9 -40.5q-59 -102 -141 -20q-23 25 -29 57q-12 37 -13 75z" />
<glyph unicode="&#x201d;" horiz-adv-x="741" d="M100 850q6 16 11.5 29.5t13.5 25.5q16 33 31.5 42.5t52.5 13.5q8 51 17.5 102t-1.5 104q-2 12 -5 24.5t-7 25.5q-6 33 27 28q57 -2 71 -57q10 -37 13.5 -74t-2.5 -76q-10 -43 -14.5 -86t-10.5 -86q-6 -47 -31.5 -74.5t-64.5 -35.5q-47 -8 -82 26q-37 27 -19 68zM414 834 q0 39 16 78.5t70 60.5q4 2 6 4t6 4q0 16 1 34.5t3 37.5q4 35 4 70.5t4 70.5q4 23 13.5 29t31.5 0q4 -2 10.5 -4t12.5 -2q35 -12 31 -48q-4 -47 -6.5 -93t-2.5 -93q-2 -41 -7 -81t-15 -79q-4 -12 -9 -23.5t-10 -21.5q-12 -27 -45 -26q-61 0 -98 45q-12 16 -16 37z" />
<glyph unicode="&#x201e;" d="M167 150.5q1 21.5 13 39.5q61 98 142 11q10 -12 16 -27.5t10 -30.5q8 -39 6 -76.5t-6 -78.5q-10 -57 -23.5 -113t-31.5 -115h-64q-20 20 -23 42t5 46q16 43 26.5 90.5t10.5 94.5q-4 4 -10.5 4t-12.5 4q-18 8 -31.5 26.5t-20.5 40t-6 43zM471 137q-4 23 1 41.5t24 28.5 q16 10 33.5 12t39.5 -8q25 -14 43.5 -33.5t30.5 -50.5q8 -31 13.5 -62.5t0.5 -64.5q-8 -59 -16 -115.5t-16 -115.5q-4 -20 -15.5 -27.5t-40.5 -3.5q-18 4 -31.5 15t-11.5 30q2 18 6.5 36.5t6.5 39.5q6 35 12 72.5t10 72.5q-37 29 -59.5 60.5t-30.5 72.5z" />
<glyph unicode="&#x2026;" horiz-adv-x="950" d="M104 68q-4 31 11 47q10 16 37 16h6q23 -2 42.5 -8t35.5 -12q35 -10 30 -52q0 -16 -15 -33.5t-32 -21.5q-12 -4 -18 -4h-8q-72 0 -89 68zM399.5 63.5q3.5 22.5 16.5 36.5q4 4 7 7.5t7 5.5q2 2 3 2t3 2h2q29 20 57.5 17t51.5 -25q23 -23 16 -48q0 -18 -20 -32q-2 0 -3 -1 t-3 -1q-18 -10 -39 -16.5t-37 -10.5q-33 -8 -55 27q-10 14 -6.5 36.5zM690 53q-4 16 7.5 37t27.5 29q6 2 10 4l8 4h7h2q68 16 100 -45q12 -27 2 -47q-8 -20 -31 -25q-4 -2 -8 -2q-23 -4 -43.5 -3t-38.5 5q-16 2 -27.5 13.5t-15.5 29.5z" />
<glyph unicode="&#x202f;" horiz-adv-x="304" />
<glyph unicode="&#x205f;" horiz-adv-x="380" />
<glyph unicode="&#x20ac;" horiz-adv-x="745" d="M82 705q0 10 10 17t23 7q23 0 41 -1t37 -1q10 0 17 2t19 4q0 31 -1 61.5t1 61.5q2 51 9.5 113.5t25 119t48 98.5t81.5 52q31 6 62.5 8t64.5 -14q45 -23 70.5 -59.5t38.5 -86.5q4 -20 -2 -41.5t-31 -19.5q-29 0 -50.5 19.5t-25.5 48.5q-10 72 -51 67q-47 -6 -72.5 -52 t-38 -105.5t-14.5 -120t-2 -97.5v-45h30.5t30.5 -2q12 -2 24.5 -3t23.5 -5q29 -8 35 -21.5t-3 -47.5q-31 -2 -60.5 -4.5t-60.5 -8.5q-23 -6 -16 -33q18 -6 37.5 -7t40.5 -1q25 0 36 -8t21 -29q10 -25 -3 -35t-35.5 -11t-47 0t-37.5 -3q0 -29 -1 -54.5t1 -47.5 q4 -53 8.5 -104.5t8.5 -104.5q-2 -16 6 -45t23.5 -54.5t35 -38t39.5 4.5q33 31 36 67.5t11 75.5q14 4 33 4t33 -6t23.5 -18.5t7.5 -32.5t-4.5 -42t-6.5 -44q-8 -35 -32.5 -60.5t-57.5 -39t-70.5 -10.5t-70.5 26q-61 43 -86 104.5t-32 129t-9 137.5t-16 133q-29 8 -54.5 13 t-50.5 15q-25 6 -39 29q-10 16 -3 26.5t28 12.5q20 0 39.5 -1t38.5 -1h32v43q-31 -6 -58.5 0t-51.5 18q-14 10 -25.5 19.5t-11.5 28.5z" />
<glyph unicode="&#x2122;" horiz-adv-x="1093" d="M45 1184q12 10 26.5 13t30.5 3h84q47 0 93.5 -2t93.5 -6q6 0 14 -3t14 -5q29 -6 23 -33q-4 -35 -35 -35q-16 -4 -32.5 -4h-37.5q0 -12 -1 -24.5t-1 -24.5q-2 -35 -2 -70v-69q-2 -33 -1 -65t1 -66v-26.5t-16 -21.5q-18 -4 -31.5 1.5t-25.5 15.5q-16 23 -19 43q-2 51 0 106 q2 51 3 102.5t-9 104.5h-84q-29 0 -55.5 17.5t-32.5 48.5zM479 799q2 35 5 68.5t8 70.5q4 47 8 95t6 95q2 45 20.5 54.5t59.5 -6.5q23 -10 42 -25.5t38 -32.5q16 -16 34 -41q31 35 57.5 64.5t51.5 64.5q16 20 33.5 20.5t36.5 -3.5q18 -4 30.5 -14.5t14.5 -32.5 q2 -27 4 -52.5t6 -54.5q20 -111 43 -227q4 -16 7 -37t3 -39q2 -25 -17.5 -36t-41.5 1q-41 18 -47 66q-12 61 -23.5 123.5t-21.5 123.5q-4 8 -7 15q-16 -12 -27 -27.5t-23.5 -29t-28 -23.5t-39.5 -10q-27 20 -52.5 42.5t-56.5 47.5q-4 -29 -8 -54.5t-8 -52.5 q-4 -47 -10.5 -92t-10.5 -92q-4 -20 -20 -23q-29 -4 -48.5 11.5t-17.5 42.5z" />
<glyph unicode="&#x25fc;" horiz-adv-x="522" d="M0 0v522h522v-522h-522z" />
</font>
</defs>
</svg>
